<svg width="1920" height="1283" viewBox="0 0 1920 1283" fill="none" xmlns="http://www.w3.org/2000/svg">
<mask id="mask0_1346_794" style="mask-type:alpha" maskUnits="userSpaceOnUse" x="0" y="0" width="1920" height="1283">
<rect width="1919.98" height="1282.61" fill="url(#paint0_linear_1346_794)"/>
</mask>
<g mask="url(#mask0_1346_794)">
<g opacity="0.21">
<path d="M960.126 -105.179L960.846 455.527V699.901L960.162 1260.3" stroke="white" stroke-width="1.74828" stroke-linecap="round" stroke-linejoin="round"/>
<path d="M472.263 1260.3L873.427 699.901V455.527L470.992 -105.179" stroke="white" stroke-width="1.74828" stroke-linecap="round" stroke-linejoin="round"/>
<path d="M1449.27 -105.179L1048.28 455.527V699.901L1448.07 1260.3" stroke="white" stroke-width="1.74828" stroke-linecap="round" stroke-linejoin="round"/>
<path d="M-16.1914 919.28L611.158 699.901V455.525L-16.0098 236.776" stroke="white" stroke-width="1.74828" stroke-linecap="round" stroke-linejoin="round"/>
<path d="M-16.1914 701.851L-0.81941 699.897V455.524L-16.1914 453.576" stroke="white" stroke-width="1.74828" stroke-linecap="round" stroke-linejoin="round"/>
<path d="M-16.1914 714.286L86.6043 699.901V455.527L-16.1914 441.181" stroke="white" stroke-width="1.74828" stroke-linecap="round" stroke-linejoin="round"/>
<path d="M-16.1914 729.47L174.028 699.899V455.525L-16.1914 426.028" stroke="white" stroke-width="1.74828" stroke-linecap="round" stroke-linejoin="round"/>
<path d="M-16.1914 748.459L261.458 699.901V455.527L-16.1914 407.095" stroke="white" stroke-width="1.74828" stroke-linecap="round" stroke-linejoin="round"/>
<path d="M-16.1914 772.862L348.881 699.898V455.524L-16.1914 382.746" stroke="white" stroke-width="1.74828" stroke-linecap="round" stroke-linejoin="round"/>
<path d="M-16.1914 805.4L436.305 699.898V455.524L-16.1914 350.289" stroke="white" stroke-width="1.74828" stroke-linecap="round" stroke-linejoin="round"/>
<path d="M-16.1914 850.958L523.738 699.9V455.524L-16.1914 304.855" stroke="white" stroke-width="1.74828" stroke-linecap="round" stroke-linejoin="round"/>
<path d="M-16.1914 1033.12L698.582 699.902V455.526L-16.1914 123.162" stroke="white" stroke-width="1.74828" stroke-linecap="round" stroke-linejoin="round"/>
<path d="M-15.6225 1260.3L786.015 699.901V455.527L-16.1914 -103.827" stroke="white" stroke-width="1.74828" stroke-linecap="round" stroke-linejoin="round"/>
<path d="M1937.91 714.286L1835.12 699.901V455.527L1937.91 441.174" stroke="white" stroke-width="1.74828" stroke-linecap="round" stroke-linejoin="round"/>
<path d="M1937.92 729.483L1747.7 699.9V455.526L1937.92 426.021" stroke="white" stroke-width="1.74828" stroke-linecap="round" stroke-linejoin="round"/>
<path d="M1937.92 748.48L1660.27 699.902V455.528L1937.92 407.075" stroke="white" stroke-width="1.74828" stroke-linecap="round" stroke-linejoin="round"/>
<path d="M1937.92 772.897L1572.84 699.902V455.526L1937.92 382.716" stroke="white" stroke-width="1.74828" stroke-linecap="round" stroke-linejoin="round"/>
<path d="M1937.91 350.235L1485.43 455.523L1485.42 699.899L1937.91 805.46" stroke="white" stroke-width="1.74828" stroke-linecap="round" stroke-linejoin="round"/>
<path d="M1937.91 304.754L1397.99 455.528L1397.98 699.902L1938.07 851.106" stroke="white" stroke-width="1.74828" stroke-linecap="round" stroke-linejoin="round"/>
<path d="M1938.07 236.469L1310.58 455.524L1310.57 699.898L1937.92 919.465" stroke="white" stroke-width="1.74828" stroke-linecap="round" stroke-linejoin="round"/>
<path d="M1938.06 122.708L1223.14 455.528V699.904L1937.91 1033.5" stroke="white" stroke-width="1.74828" stroke-linecap="round" stroke-linejoin="round"/>
<path d="M1937.91 -104.827L1135.71 455.527V699.901L1935.97 1260.3" stroke="white" stroke-width="1.74828" stroke-linecap="round" stroke-linejoin="round"/>
<path d="M1937.92 125.408H-16.1914" stroke="white" stroke-width="1.74828" stroke-linecap="round" stroke-linejoin="round"/>
<path d="M1937.92 346.265H-16.1914" stroke="white" stroke-width="1.74828" stroke-linecap="round" stroke-linejoin="round"/>
<path d="M1937.92 271.521H-16.1914" stroke="white" stroke-width="1.74828" stroke-linecap="round" stroke-linejoin="round"/>
<path d="M1937.92 187.48H-16.1914" stroke="white" stroke-width="1.74828" stroke-linecap="round" stroke-linejoin="round"/>
<path d="M1937.92 455.541H-16.1914" stroke="white" stroke-width="1.74828" stroke-linecap="round" stroke-linejoin="round"/>
<path d="M1937.92 39.8297H-16.1914" stroke="white" stroke-width="1.74828" stroke-linecap="round" stroke-linejoin="round"/>
<path d="M1937.92 234.577H-16.1914" stroke="white" stroke-width="1.74828" stroke-linecap="round" stroke-linejoin="round"/>
<path d="M1937.92 301.281H-16.1914" stroke="white" stroke-width="1.74828" stroke-linecap="round" stroke-linejoin="round"/>
<path d="M1937.92 422.17H-16.1914" stroke="white" stroke-width="1.74828" stroke-linecap="round" stroke-linejoin="round"/>
<path d="M1937.92 403.082H-16.1914" stroke="white" stroke-width="1.74828" stroke-linecap="round" stroke-linejoin="round"/>
<path d="M1937.92 391.669H-16.1914" stroke="white" stroke-width="1.74828" stroke-linecap="round" stroke-linejoin="round"/>
<path d="M1937.92 413.178H-16.1914" stroke="white" stroke-width="1.74828" stroke-linecap="round" stroke-linejoin="round"/>
<path d="M1937.92 437.492H-16.1914" stroke="white" stroke-width="1.74828" stroke-linecap="round" stroke-linejoin="round"/>
<path d="M1937.92 430.23H-16.1914" stroke="white" stroke-width="1.74828" stroke-linecap="round" stroke-linejoin="round"/>
<path d="M1937.92 444.07H-16.1914" stroke="white" stroke-width="1.74828" stroke-linecap="round" stroke-linejoin="round"/>
<path d="M1937.92 450.061H-16.1914" stroke="white" stroke-width="1.74828" stroke-linecap="round" stroke-linejoin="round"/>
<path d="M1937.92 363.674H-16.1914" stroke="white" stroke-width="1.74828" stroke-linecap="round" stroke-linejoin="round"/>
<path d="M1937.92 325.766H-16.1914" stroke="white" stroke-width="1.74828" stroke-linecap="round" stroke-linejoin="round"/>
<path d="M1937.92 378.65H-16.1914" stroke="white" stroke-width="1.74828" stroke-linecap="round" stroke-linejoin="round"/>
<path d="M-16.1914 699.9H1937.92" stroke="white" stroke-width="1.74828" stroke-linecap="round" stroke-linejoin="round"/>
<path d="M-16.1914 638.81H1937.92" stroke="white" stroke-width="1.74828" stroke-linecap="round" stroke-linejoin="round"/>
<path d="M-16.1914 577.723H1937.92" stroke="white" stroke-width="1.74828" stroke-linecap="round" stroke-linejoin="round"/>
<path d="M-16.1914 516.629H1937.92" stroke="white" stroke-width="1.74828" stroke-linecap="round" stroke-linejoin="round"/>
<path d="M-16.1914 455.541H1937.92" stroke="white" stroke-width="1.74828" stroke-linecap="round" stroke-linejoin="round"/>
<path d="M1937.5 699.9H-16.1914" stroke="white" stroke-width="1.74828" stroke-linecap="round" stroke-linejoin="round"/>
<path d="M1937.92 705.392H-16.1914" stroke="white" stroke-width="1.74828" stroke-linecap="round" stroke-linejoin="round"/>
<path d="M1937.92 711.398H-16.1914" stroke="white" stroke-width="1.74828" stroke-linecap="round" stroke-linejoin="round"/>
<path d="M1937.92 718.001H-16.1914" stroke="white" stroke-width="1.74828" stroke-linecap="round" stroke-linejoin="round"/>
<path d="M1937.92 725.278H-16.1914" stroke="white" stroke-width="1.74828" stroke-linecap="round" stroke-linejoin="round"/>
<path d="M1937.92 733.358H-16.1914" stroke="white" stroke-width="1.74828" stroke-linecap="round" stroke-linejoin="round"/>
<path d="M1937.92 742.372H-16.1914" stroke="white" stroke-width="1.74828" stroke-linecap="round" stroke-linejoin="round"/>
<path d="M1937.92 752.5H-16.1914" stroke="white" stroke-width="1.74828" stroke-linecap="round" stroke-linejoin="round"/>
<path d="M1937.92 763.942H-16.1914" stroke="white" stroke-width="1.74828" stroke-linecap="round" stroke-linejoin="round"/>
<path d="M1937.92 776.99H-16.1914" stroke="white" stroke-width="1.74828" stroke-linecap="round" stroke-linejoin="round"/>
<path d="M1937.92 792.005H-16.1914" stroke="white" stroke-width="1.74828" stroke-linecap="round" stroke-linejoin="round"/>
<path d="M1937.92 809.467H-16.1914" stroke="white" stroke-width="1.74828" stroke-linecap="round" stroke-linejoin="round"/>
<path d="M1937.92 830.016H-16.1914" stroke="white" stroke-width="1.74828" stroke-linecap="round" stroke-linejoin="round"/>
<path d="M1937.92 854.57H-16.1914" stroke="white" stroke-width="1.74828" stroke-linecap="round" stroke-linejoin="round"/>
<path d="M1937.91 884.411H-16.6133" stroke="white" stroke-width="1.74828" stroke-linecap="round" stroke-linejoin="round"/>
<path d="M1937.92 921.451H-16.1914" stroke="white" stroke-width="1.74828" stroke-linecap="round" stroke-linejoin="round"/>
<path d="M1937.92 968.671H-16.1914" stroke="white" stroke-width="1.74828" stroke-linecap="round" stroke-linejoin="round"/>
<path d="M1937.92 1030.93H-16.1914" stroke="white" stroke-width="1.74828" stroke-linecap="round" stroke-linejoin="round"/>
<path d="M1937.92 1116.75H-16.1914" stroke="white" stroke-width="1.74828" stroke-linecap="round" stroke-linejoin="round"/>
<path d="M1937.92 1242.64H-16.1914" stroke="white" stroke-width="1.74828" stroke-linecap="round" stroke-linejoin="round"/>
</g>
</g>
<defs>
<linearGradient id="paint0_linear_1346_794" x1="959.988" y1="0" x2="959.988" y2="1282.61" gradientUnits="userSpaceOnUse">
<stop offset="0.539381" stop-color="#D9D9D9" stop-opacity="0"/>
<stop offset="0.723426" stop-color="#797979"/>
<stop offset="0.940433" stop-color="#B2B2B2"/>
</linearGradient>
</defs>
</svg>
