<svg width="32" height="195" viewBox="0 0 32 195" fill="none" xmlns="http://www.w3.org/2000/svg">
<path d="M4.10576 0C4.96122 0.135693 6.34313 0.237462 7.23149 0.237462H25.1633C26.1504 0.237462 27.302 0.135693 28.2233 0V4.68142C27.2691 4.57965 26.1175 4.5118 25.1633 4.5118H7.23149C6.34313 4.5118 4.96122 4.57965 4.10576 4.68142V0ZM13.6146 20.8968V2.61209H18.188V20.8968H13.6146ZM2 18.115C3.05288 18.2847 4.23737 18.3864 5.22444 18.3864H26.9401C28.0917 18.3864 29.1445 18.2168 30 18.115V23C29.0787 22.8982 27.6968 22.8643 26.9401 22.8643H5.22444C4.27027 22.8643 3.08578 22.8982 2 23V18.115Z" fill="black"/>
<path d="M25.2399 60.3326C26.0892 61.5769 27.3121 63.7889 27.9575 65.0677L25.2059 66.2428C24.5265 64.8257 23.4735 62.7866 22.5563 61.4386L25.2399 60.3326ZM29.2824 58.7773C30.1656 60.0561 31.4225 62.2681 32 63.4778L29.3163 64.6529C28.603 63.2013 27.5159 61.1967 26.5648 59.8833L29.2824 58.7773ZM5.29936 77.1299C6.79406 73.2935 8.08493 68.4202 8.52654 63.9962L13.4522 65.0677C13.1805 66.0354 12.7728 67.729 12.6369 68.5239C12.1614 70.9432 10.9384 75.6783 9.74947 78.8926C8.52654 82.2451 6.52229 86.1852 4.75584 88.7773L0 86.7382C2.10616 83.9041 4.1104 80.2059 5.29936 77.1299ZM22.0467 76.4386C20.7558 72.8096 18.5817 67.6944 17.121 65.0677L21.6391 63.5815C23.0658 66.2428 25.3758 71.5654 26.6667 74.8833C27.8896 78.0285 29.69 83.5239 30.6072 86.9455L25.5796 88.6045C24.6624 84.5262 23.4055 80.1714 22.0467 76.4386Z" fill="black"/>
<path d="M3 124.556C4.17892 124.67 6.47304 124.821 8.1299 124.821C11.8897 124.821 22.4044 124.821 25.2402 124.821C26.7377 124.821 28.1397 124.632 29 124.556V130.556C28.2353 130.518 26.6103 130.328 25.2721 130.328C22.3725 130.328 11.8897 130.328 8.1299 130.328C6.34559 130.328 4.21078 130.442 3 130.556V124.556Z" fill="black"/>
<path d="M6.35398 189.672C6.35398 187.09 6.35398 173.207 6.35398 170.39C6.35398 169.183 6.24779 167.54 6 166.333H11.5221C11.3805 167.54 11.2035 168.982 11.2035 170.39C11.2035 174.079 11.2389 187.19 11.2389 189.672C11.2389 190.611 11.3805 192.958 11.5575 194.333H6C6.24779 193.025 6.35398 190.98 6.35398 189.672ZM10.177 175.018C14.885 176.259 22.531 178.908 26 180.517L24.0177 185.179C19.9823 183.2 14.0354 181.054 10.177 179.847V175.018Z" fill="black"/>
</svg>
