<svg width="1920" height="1489" viewBox="0 0 1920 1489" fill="none" xmlns="http://www.w3.org/2000/svg">
<path fill-rule="evenodd" clip-rule="evenodd" d="M-222 0V1488.62H-221V0H-222ZM823.469 353.172V439.35H737.289V353.172H823.469ZM824.469 353.172V439.35H910.645V353.172H824.469ZM910.645 352.172H824.469V265.994H910.645V352.172ZM911.645 353.172V439.35H997.824V353.172H911.645ZM997.824 352.172H911.645V265.994H997.824V352.172ZM998.824 353.172V439.35H1085V353.172H998.824ZM1085 352.172H998.824V265.994H1085V352.172ZM1086 353.172V439.35H1172.18V353.172H1086ZM1172.18 352.172H1086V265.994H1172.18V352.172ZM1173.18 353.172V439.35H1259.36V353.172H1173.18ZM1259.36 352.172H1173.18V265.994H1259.36V352.172ZM1260.36 353.172V439.35H1346.53V353.172H1260.36ZM1346.53 352.172H1260.36V265.994H1346.53V352.172ZM1347.53 353.172V439.35H1433.71V353.172H1347.53ZM1433.71 352.172H1347.53V265.994H1433.71V352.172ZM1434.71 353.172V439.35H1520.88V353.172H1434.71ZM1520.88 352.172H1434.71V265.994H1520.88V352.172ZM1521.88 353.172V439.35H1608.06V353.172H1521.88ZM1608.06 352.172H1521.88V265.994H1608.06V352.172ZM1609.06 353.172V439.35L1695.24 439.35V353.172L1609.06 353.172ZM1695.24 352.172L1609.06 352.172V265.994L1695.24 265.994V352.172ZM1696.24 353.172V439.35H1782.42V353.172H1696.24ZM1782.42 352.172H1696.24V265.994H1782.42V352.172ZM1783.42 353.172V439.35H1869.59V353.172H1783.42ZM1869.59 352.172H1783.42V265.994H1869.59V352.172ZM1870.59 353.172V439.35H1956.77V353.172H1870.59ZM1956.77 352.172H1870.59V265.994H1956.77V352.172ZM1957.77 353.172V439.35H2043.95V353.172H1957.77ZM2043.95 352.172H1957.77V265.994H2043.95V352.172ZM2044.95 353.172V439.35H2131.13V353.172H2044.95ZM2131.13 352.172H2044.95V265.994H2131.13V352.172ZM2132.13 353.172V439.35H2218.3V353.172H2132.13ZM2218.3 352.172H2132.13V265.994H2218.3V352.172ZM2219.3 353.172V439.35H2305.48V353.172H2219.3ZM2305.48 352.172H2219.3V265.994H2305.48V352.172ZM823.469 352.172H737.289V265.994H823.469V352.172ZM736.289 352.172V265.994H650.113V352.172H736.289ZM650.113 353.172V439.35H736.289V353.172H650.113ZM649.113 353.172V439.35H562.934V353.172H649.113ZM649.113 352.172V265.994H562.934V352.172H649.113ZM561.934 352.172V265.994H475.758V352.172H561.934ZM475.758 353.172V439.35H561.934V353.172H475.758ZM474.758 353.172V439.35L388.582 439.35V353.172L474.758 353.172ZM474.758 352.172V265.994L388.582 265.994V352.172L474.758 352.172ZM387.582 352.172V265.994H301.402V352.172H387.582ZM301.402 353.172V439.35H387.582V353.172H301.402ZM300.402 353.172V439.35H214.227V353.172H300.402ZM300.402 352.172V265.994H214.227V352.172H300.402ZM213.227 352.172V265.994H127.047V352.172H213.227ZM127.047 353.172V439.35H213.227V353.172H127.047ZM126.047 353.172V439.35H39.8711V353.172H126.047ZM126.047 352.172V265.994H39.8711V352.172H126.047ZM38.8711 352.172V265.994H-47.3086V352.172H38.8711ZM-47.3086 353.172V439.35H38.8711V353.172H-47.3086ZM-48.3086 353.172V439.35H-134.484V353.172H-48.3086ZM-48.3086 352.172V265.994H-134.484V352.172H-48.3086ZM-135.484 352.172V265.994H-220.84V264.994H-135.484V178.817H-220.84V177.817H-135.484V91.6406H-220.84V90.6406H-135.484V4.46289L-220.84 4.46289V3.46289L-135.484 3.46289V0H-134.484V3.46289L-48.3086 3.46289V0H-47.3086V3.46289L38.8711 3.46288V0H39.8711V3.46288L126.047 3.46288V0H127.047V3.46288L213.227 3.46288V0H214.227V3.46288L300.402 3.46288V0H301.402V3.46288L387.582 3.46287V0H388.582V3.46287L474.758 3.46287V0H475.758V3.46287L561.934 3.46287V0H562.934V3.46287L649.113 3.46287V0H650.113V3.46287L736.289 3.46287V0H737.289V3.46287L823.469 3.46286V0H824.469V3.46286L910.645 3.46286V0H911.645V3.46286L997.824 3.46286V0H998.824V3.46286L1085 3.46286V0H1086V3.46286L1172.18 3.46285V0H1173.18V3.46285L1259.36 3.46285V0H1260.36V3.46285L1346.53 3.46285V0H1347.53V3.46285L1433.71 3.46285V0H1434.71V3.46285L1520.88 3.46285V0H1521.88V3.46285L1608.06 3.46284V0H1609.06V3.46284L1695.24 3.46284V0H1696.24V3.46284L1782.42 3.46284V0H1783.42V3.46284L1869.59 3.46284V0H1870.59V3.46284L1956.77 3.46283V0H1957.77V3.46283L2043.95 3.46283V0H2044.95V3.46283L2131.13 3.46283V0H2132.13V3.46283L2218.3 3.46283V0H2219.3V3.46283L2305.48 3.46283V0H2306.48V1488.62H2305.48V1486.48H2219.3V1488.62H2218.3V1486.48H2132.13V1488.62H2131.13V1486.48H2044.95V1488.62H2043.95V1486.48H1957.77V1488.62H1956.77V1486.48H1870.59V1488.62H1869.59V1486.48H1783.42V1488.62H1782.42V1486.48H1696.24V1488.62H1695.24V1486.48H1609.06V1488.62H1608.06V1486.48H1521.88V1488.62H1520.88V1486.48H1434.71V1488.62H1433.71V1486.48H1347.53V1488.62H1346.53V1486.48H1260.36V1488.62H1259.36V1486.48H1173.18V1488.62H1172.18V1486.48H1086V1488.62H1085V1486.48L998.824 1486.48V1488.62H997.824V1486.48H911.645V1488.62H910.645V1486.48H824.469V1488.62H823.469V1486.48H737.289V1488.62H736.289V1486.48H650.113V1488.62H649.113V1486.48H562.934V1488.62H561.934V1486.48H475.758V1488.62H474.758V1486.48H388.582V1488.62H387.582V1486.48H301.402V1488.62H300.402V1486.48H214.227V1488.62H213.227V1486.48H127.047V1488.62H126.047V1486.48H39.8711V1488.62H38.8711V1486.48H-47.3086V1488.62H-48.3086V1486.48H-134.484V1488.62H-135.484V1486.48H-220.84V1485.48H-135.484V1399.3H-220.84V1398.3H-135.484V1312.12H-220.84V1311.12H-135.484V1224.95H-220.84V1223.95H-135.484V1137.77H-220.84V1136.77H-135.484V1050.59H-220.84V1049.59H-135.484V963.414H-220.84V962.414H-135.484V876.236H-220.84V875.236H-135.484V789.059H-220.84V788.059H-135.484V701.881H-220.84V700.881H-135.484V614.703H-220.84V613.703H-135.484V527.527H-220.84V526.527H-135.484V440.35H-220.84V439.35H-135.484V353.172H-220.84V352.172H-135.484ZM2305.48 4.46283V90.6406H2219.3V4.46283L2305.48 4.46283ZM2218.3 4.46283V90.6406L2132.13 90.6406V4.46283L2218.3 4.46283ZM2131.13 4.46283V90.6406H2044.95V4.46283L2131.13 4.46283ZM2043.95 4.46283V90.6406H1957.77V4.46283L2043.95 4.46283ZM1956.77 4.46283V90.6406L1870.59 90.6406V4.46284L1956.77 4.46283ZM1869.59 4.46284V90.6406H1783.42V4.46284L1869.59 4.46284ZM1782.42 4.46284V90.6406H1696.24V4.46284L1782.42 4.46284ZM1695.24 4.46284V90.6406H1609.06V4.46284L1695.24 4.46284ZM1608.06 4.46284V90.6406L1521.88 90.6406V4.46285L1608.06 4.46284ZM1520.88 4.46285V90.6406H1434.71V4.46285L1520.88 4.46285ZM1433.71 4.46285V90.6406H1347.53V4.46285L1433.71 4.46285ZM1346.53 4.46285V90.6406L1260.36 90.6406V4.46285L1346.53 4.46285ZM1259.36 4.46285V90.6406H1173.18V4.46285L1259.36 4.46285ZM1172.18 4.46285V90.6406H1086V4.46286L1172.18 4.46285ZM1085 4.46286V90.6406L998.824 90.6406V4.46286L1085 4.46286ZM997.824 4.46286V90.6406H911.645V4.46286L997.824 4.46286ZM910.645 4.46286V90.6406H824.469V4.46286L910.645 4.46286ZM823.469 4.46286V90.6406L737.289 90.6406V4.46287L823.469 4.46286ZM736.289 4.46287L650.113 4.46287V90.6406H736.289V4.46287ZM649.113 4.46287L562.934 4.46287V90.6406H649.113V4.46287ZM561.934 4.46287L475.758 4.46287V90.6406L561.934 90.6406V4.46287ZM474.758 4.46287L388.582 4.46287V90.6406H474.758V4.46287ZM387.582 4.46287L301.402 4.46288V90.6406H387.582V4.46287ZM300.402 4.46288L214.227 4.46288V90.6406H300.402V4.46288ZM213.227 4.46288L127.047 4.46288V90.6406L213.227 90.6406V4.46288ZM126.047 4.46288L39.8711 4.46288V90.6406H126.047V4.46288ZM38.8711 4.46288L-47.3086 4.46289V90.6406H38.8711V4.46288ZM-48.3086 4.46289L-134.484 4.46289V90.6406L-48.3086 90.6406V4.46289ZM-134.484 1136.77V1050.59H-48.3086V1136.77H-134.484ZM-47.3086 1136.77V1050.59H38.8711V1136.77H-47.3086ZM-47.3086 1049.59H38.8711V963.414H-47.3086V1049.59ZM39.8711 1136.77V1050.59H126.047V1136.77H39.8711ZM39.8711 1049.59H126.047V963.414H39.8711V1049.59ZM127.047 1136.77V1050.59H213.227V1136.77H127.047ZM127.047 1049.59H213.227V963.414H127.047V1049.59ZM214.227 1136.77V1050.59H300.402V1136.77H214.227ZM214.227 1049.59H300.402V963.414H214.227V1049.59ZM301.402 1136.77V1050.59H387.582V1136.77H301.402ZM301.402 1049.59H387.582V963.414H301.402V1049.59ZM388.582 1136.77V1050.59H474.758V1136.77H388.582ZM388.582 1049.59H474.758V963.414H388.582V1049.59ZM475.758 1136.77V1050.59H561.934V1136.77H475.758ZM475.758 1049.59H561.934V963.414H475.758V1049.59ZM562.934 1136.77V1050.59H649.113V1136.77H562.934ZM562.934 1049.59H649.113V963.414H562.934V1049.59ZM650.113 1136.77V1050.59H736.289V1136.77H650.113ZM650.113 1049.59H736.289V963.414H650.113V1049.59ZM737.289 1136.77V1050.59H823.469V1136.77H737.289ZM737.289 1049.59H823.469V963.414H737.289V1049.59ZM824.469 1136.77V1050.59H910.645V1136.77H824.469ZM824.469 1049.59H910.645V963.414H824.469V1049.59ZM911.645 1136.77V1050.59H997.824V1136.77H911.645ZM911.645 1049.59H997.824V963.414H911.645V1049.59ZM998.824 1136.77V1050.59L1085 1050.59V1136.77L998.824 1136.77ZM998.824 1049.59L1085 1049.59V963.414L998.824 963.414V1049.59ZM1086 1136.77V1050.59H1172.18V1136.77H1086ZM1086 1049.59H1172.18V963.414H1086V1049.59ZM1173.18 1136.77V1050.59H1259.36V1136.77H1173.18ZM1173.18 1049.59H1259.36V963.414H1173.18V1049.59ZM1260.36 1136.77V1050.59H1346.53V1136.77H1260.36ZM1260.36 1049.59H1346.53V963.414H1260.36V1049.59ZM1347.53 1136.77V1050.59H1433.71V1136.77H1347.53ZM1347.53 1049.59H1433.71V963.414H1347.53V1049.59ZM1434.71 1136.77V1050.59H1520.88V1136.77H1434.71ZM1434.71 1049.59H1520.88V963.414H1434.71V1049.59ZM1521.88 1136.77V1050.59H1608.06V1136.77H1521.88ZM1521.88 1049.59H1608.06V963.414H1521.88V1049.59ZM1609.06 1136.77V1050.59H1695.24V1136.77H1609.06ZM1609.06 1049.59H1695.24V963.414H1609.06V1049.59ZM1696.24 1136.77V1050.59H1782.42V1136.77H1696.24ZM1696.24 1049.59H1782.42V963.414H1696.24V1049.59ZM1783.42 1136.77V1050.59H1869.59V1136.77H1783.42ZM1783.42 1049.59H1869.59V963.414H1783.42V1049.59ZM1870.59 1136.77V1050.59H1956.77V1136.77H1870.59ZM1870.59 1049.59H1956.77V963.414H1870.59V1049.59ZM1957.77 1136.77V1050.59H2043.95V1136.77H1957.77ZM1957.77 1049.59H2043.95V963.414H1957.77V1049.59ZM2044.95 1136.77V1050.59H2131.13V1136.77H2044.95ZM2044.95 1049.59H2131.13V963.414H2044.95V1049.59ZM2132.13 1136.77V1050.59H2218.3V1136.77H2132.13ZM2132.13 1049.59H2218.3V963.414H2132.13V1049.59ZM2219.3 1136.77V1050.59H2305.48V1136.77H2219.3ZM2219.3 1049.59H2305.48V963.414H2219.3V1049.59ZM-134.484 1049.59H-48.3086V963.414H-134.484V1049.59ZM-134.484 527.527V613.703H-48.3086V527.527H-134.484ZM-48.3086 526.527H-134.484V440.35H-48.3086V526.527ZM-47.3086 527.527V613.703H38.8711V527.527H-47.3086ZM38.8711 526.527H-47.3086V440.35H38.8711V526.527ZM39.8711 527.527V613.703H126.047V527.527H39.8711ZM126.047 526.527H39.8711V440.35H126.047V526.527ZM127.047 527.527V613.703H213.227V527.527H127.047ZM213.227 526.527H127.047V440.35H213.227V526.527ZM214.227 527.527V613.703H300.402V527.527H214.227ZM300.402 526.527H214.227V440.35H300.402V526.527ZM301.402 527.527V613.703H387.582V527.527H301.402ZM387.582 526.527H301.402V440.35H387.582V526.527ZM388.582 527.527V613.703H474.758V527.527H388.582ZM474.758 526.527H388.582V440.35L474.758 440.35V526.527ZM475.758 527.527V613.703H561.934V527.527H475.758ZM561.934 526.527H475.758V440.35H561.934V526.527ZM562.934 527.527V613.703H649.113V527.527H562.934ZM649.113 526.527H562.934V440.35H649.113V526.527ZM650.113 527.527V613.703H736.289V527.527H650.113ZM736.289 526.527H650.113V440.35H736.289V526.527ZM737.289 527.527V613.703H823.469V527.527H737.289ZM823.469 526.527H737.289V440.35H823.469V526.527ZM824.469 527.527V613.703H910.645V527.527H824.469ZM910.645 526.527H824.469V440.35H910.645V526.527ZM911.645 527.527V613.703H997.824V527.527H911.645ZM997.824 526.527H911.645V440.35H997.824V526.527ZM998.824 527.527V613.703L1085 613.703V527.527L998.824 527.527ZM1085 526.527L998.824 526.527V440.35H1085V526.527ZM1086 527.527V613.703H1172.18V527.527H1086ZM1172.18 526.527H1086V440.35H1172.18V526.527ZM1173.18 527.527V613.703H1259.36V527.527H1173.18ZM1259.36 526.527H1173.18V440.35H1259.36V526.527ZM1260.36 527.527V613.703H1346.53V527.527H1260.36ZM1346.53 526.527H1260.36V440.35H1346.53V526.527ZM1347.53 527.527V613.703H1433.71V527.527H1347.53ZM1433.71 526.527H1347.53V440.35H1433.71V526.527ZM1434.71 527.527V613.703H1520.88V527.527H1434.71ZM1520.88 526.527H1434.71V440.35H1520.88V526.527ZM1521.88 527.527V613.703H1608.06V527.527H1521.88ZM1608.06 526.527H1521.88V440.35H1608.06V526.527ZM1609.06 527.527V613.703H1695.24V527.527H1609.06ZM1695.24 526.527H1609.06V440.35L1695.24 440.35V526.527ZM1696.24 527.527V613.703H1782.42V527.527H1696.24ZM1782.42 526.527H1696.24V440.35H1782.42V526.527ZM1783.42 527.527V613.703H1869.59V527.527H1783.42ZM1869.59 526.527H1783.42V440.35H1869.59V526.527ZM1870.59 527.527V613.703H1956.77V527.527H1870.59ZM1956.77 526.527H1870.59V440.35H1956.77V526.527ZM1957.77 527.527V613.703H2043.95V527.527H1957.77ZM2043.95 526.527H1957.77V440.35H2043.95V526.527ZM2044.95 527.527V613.703H2131.13V527.527H2044.95ZM2131.13 526.527H2044.95V440.35H2131.13V526.527ZM2132.13 527.527V613.703H2218.3V527.527H2132.13ZM2218.3 526.527H2132.13V440.35H2218.3V526.527ZM2219.3 527.527V613.703H2305.48V527.527H2219.3ZM2305.48 526.527H2219.3V440.35H2305.48V526.527ZM-134.484 264.994V178.817H-48.3086V264.994H-134.484ZM-47.3086 264.994V178.817H38.8711V264.994H-47.3086ZM-47.3086 177.817H38.8711V91.6406H-47.3086V177.817ZM39.8711 264.994V178.817L126.047 178.817V264.994H39.8711ZM39.8711 177.817L126.047 177.817V91.6406H39.8711V177.817ZM127.047 264.994V178.817H213.227V264.994H127.047ZM127.047 177.817H213.227V91.6406L127.047 91.6406V177.817ZM214.227 264.994V178.817H300.402V264.994H214.227ZM214.227 177.817H300.402V91.6406H214.227V177.817ZM301.402 264.994V178.817H387.582V264.994H301.402ZM301.402 177.817H387.582V91.6406H301.402V177.817ZM388.582 264.994V178.817H474.758V264.994L388.582 264.994ZM388.582 177.817H474.758V91.6406H388.582V177.817ZM475.758 264.994V178.817H561.934V264.994H475.758ZM475.758 177.817H561.934V91.6406L475.758 91.6406V177.817ZM562.934 264.994V178.817H649.113V264.994H562.934ZM562.934 177.817H649.113V91.6406H562.934V177.817ZM650.113 264.994V178.817L736.289 178.817V264.994H650.113ZM650.113 177.817L736.289 177.817V91.6406H650.113V177.817ZM737.289 91.6406V177.817H823.469V91.6406L737.289 91.6406ZM823.469 178.817H737.289V264.994H823.469V178.817ZM824.469 264.994V178.817H910.645V264.994H824.469ZM910.645 177.817H824.469V91.6406H910.645V177.817ZM911.645 91.6406V177.817H997.824V91.6406H911.645ZM997.824 178.817H911.645V264.994H997.824V178.817ZM998.824 264.994V178.817H1085V264.994H998.824ZM1085 177.817H998.824V91.6406L1085 91.6406V177.817ZM1086 91.6406V177.817H1172.18V91.6406H1086ZM1172.18 178.817H1086V264.994H1172.18V178.817ZM1173.18 264.994V178.817H1259.36V264.994H1173.18ZM1259.36 177.817H1173.18V91.6406H1259.36V177.817ZM1260.36 91.6406V177.817H1346.53V91.6406L1260.36 91.6406ZM1346.53 178.817H1260.36V264.994H1346.53V178.817ZM1347.53 264.994V178.817L1433.71 178.817V264.994H1347.53ZM1433.71 177.817L1347.53 177.817V91.6406H1433.71V177.817ZM1434.71 91.6406V177.817H1520.88V91.6406H1434.71ZM1520.88 178.817H1434.71V264.994H1520.88V178.817ZM1521.88 264.994V178.817H1608.06V264.994H1521.88ZM1608.06 177.817H1521.88V91.6406L1608.06 91.6406V177.817ZM1609.06 91.6406V177.817H1695.24V91.6406H1609.06ZM1695.24 178.817H1609.06V264.994L1695.24 264.994V178.817ZM1696.24 264.994V178.817H1782.42V264.994H1696.24ZM1782.42 177.817H1696.24V91.6406H1782.42V177.817ZM1783.42 91.6406V177.817H1869.59V91.6406H1783.42ZM1869.59 178.817H1783.42V264.994H1869.59V178.817ZM1870.59 264.994V178.817H1956.77V264.994H1870.59ZM1956.77 177.817H1870.59V91.6406L1956.77 91.6406V177.817ZM1957.77 91.6406V177.817L2043.95 177.817V91.6406H1957.77ZM2043.95 178.817L1957.77 178.817V264.994H2043.95V178.817ZM2044.95 264.994V178.817H2131.13V264.994H2044.95ZM2131.13 177.817H2044.95V91.6406H2131.13V177.817ZM2132.13 91.6406V177.817H2218.3V91.6406L2132.13 91.6406ZM2218.3 178.817H2132.13V264.994H2218.3V178.817ZM2219.3 264.994V178.817H2305.48V264.994H2219.3ZM2305.48 177.817H2219.3V91.6406H2305.48V177.817ZM-134.484 177.817H-48.3086V91.6406L-134.484 91.6406V177.817ZM-134.484 1224.95V1311.12H-48.3086V1224.95H-134.484ZM-48.3086 1223.95H-134.484V1137.77H-48.3086V1223.95ZM-47.3086 1224.95V1311.12H38.8711V1224.95H-47.3086ZM38.8711 1223.95H-47.3086V1137.77H38.8711V1223.95ZM39.8711 1224.95V1311.12H126.047V1224.95H39.8711ZM126.047 1223.95H39.8711V1137.77H126.047V1223.95ZM127.047 1224.95V1311.12H213.227V1224.95H127.047ZM213.227 1223.95H127.047V1137.77H213.227V1223.95ZM214.227 1224.95V1311.12H300.402V1224.95H214.227ZM300.402 1223.95H214.227V1137.77H300.402V1223.95ZM301.402 1224.95V1311.12H387.582V1224.95H301.402ZM387.582 1223.95H301.402V1137.77H387.582V1223.95ZM388.582 1224.95V1311.12H474.758V1224.95H388.582ZM474.758 1223.95H388.582V1137.77H474.758V1223.95ZM475.758 1224.95V1311.12H561.934V1224.95H475.758ZM561.934 1223.95H475.758V1137.77H561.934V1223.95ZM562.934 1224.95V1311.12H649.113V1224.95H562.934ZM649.113 1223.95H562.934V1137.77H649.113V1223.95ZM650.113 1224.95V1311.12H736.289V1224.95H650.113ZM736.289 1223.95H650.113V1137.77H736.289V1223.95ZM737.289 1224.95V1311.12H823.469V1224.95H737.289ZM823.469 1223.95H737.289V1137.77H823.469V1223.95ZM824.469 1224.95V1311.12H910.645V1224.95H824.469ZM910.645 1223.95H824.469V1137.77H910.645V1223.95ZM911.645 1224.95V1311.12H997.824V1224.95H911.645ZM997.824 1223.95H911.645V1137.77H997.824V1223.95ZM998.824 1224.95V1311.12L1085 1311.12V1224.95L998.824 1224.95ZM1085 1223.95L998.824 1223.95V1137.77L1085 1137.77V1223.95ZM1086 1224.95V1311.12H1172.18V1224.95H1086ZM1172.18 1223.95H1086V1137.77H1172.18V1223.95ZM1173.18 1224.95V1311.12H1259.36V1224.95H1173.18ZM1259.36 1223.95H1173.18V1137.77H1259.36V1223.95ZM1260.36 1224.95V1311.12H1346.53V1224.95H1260.36ZM1346.53 1223.95H1260.36V1137.77H1346.53V1223.95ZM1347.53 1224.95V1311.12H1433.71V1224.95H1347.53ZM1433.71 1223.95H1347.53V1137.77H1433.71V1223.95ZM1434.71 1224.95V1311.12H1520.88V1224.95H1434.71ZM1520.88 1223.95H1434.71V1137.77H1520.88V1223.95ZM1521.88 1224.95V1311.12H1608.06V1224.95H1521.88ZM1608.06 1223.95H1521.88V1137.77H1608.06V1223.95ZM1609.06 1224.95V1311.12H1695.24V1224.95H1609.06ZM1695.24 1223.95H1609.06V1137.77H1695.24V1223.95ZM1696.24 1224.95V1311.12H1782.42V1224.95H1696.24ZM1782.42 1223.95H1696.24V1137.77H1782.42V1223.95ZM1783.42 1224.95V1311.12H1869.59V1224.95H1783.42ZM1869.59 1223.95H1783.42V1137.77H1869.59V1223.95ZM1870.59 1224.95V1311.12H1956.77V1224.95H1870.59ZM1956.77 1223.95H1870.59V1137.77H1956.77V1223.95ZM1957.77 1224.95V1311.12H2043.95V1224.95H1957.77ZM2043.95 1223.95H1957.77V1137.77H2043.95V1223.95ZM2044.95 1224.95V1311.12H2131.13V1224.95H2044.95ZM2131.13 1223.95H2044.95V1137.77H2131.13V1223.95ZM2132.13 1224.95V1311.12H2218.3V1224.95H2132.13ZM2218.3 1223.95H2132.13V1137.77H2218.3V1223.95ZM2219.3 1224.95V1311.12H2305.48V1224.95H2219.3ZM2305.48 1223.95H2219.3V1137.77H2305.48V1223.95ZM-134.484 788.059V701.881H-48.3086V788.059H-134.484ZM-47.3086 788.059V701.881H38.8711V788.059H-47.3086ZM-47.3086 700.881H38.8711V614.703H-47.3086V700.881ZM39.8711 788.059V701.881H126.047V788.059H39.8711ZM39.8711 700.881H126.047V614.703H39.8711V700.881ZM127.047 788.059V701.881H213.227V788.059H127.047ZM127.047 700.881H213.227V614.703H127.047V700.881ZM214.227 788.059V701.881H300.402V788.059H214.227ZM214.227 700.881H300.402V614.703H214.227V700.881ZM301.402 788.059V701.881H387.582V788.059H301.402ZM301.402 700.881H387.582V614.703H301.402V700.881ZM388.582 788.059V701.881H474.758V788.059H388.582ZM388.582 700.881H474.758V614.703H388.582V700.881ZM475.758 788.059V701.881H561.934V788.059H475.758ZM475.758 700.881H561.934V614.703H475.758V700.881ZM562.934 788.059V701.881H649.113V788.059H562.934ZM562.934 700.881H649.113V614.703H562.934V700.881ZM650.113 788.059V701.881H736.289V788.059H650.113ZM650.113 700.881H736.289V614.703H650.113V700.881ZM737.289 788.059V701.881H823.469V788.059H737.289ZM737.289 700.881H823.469V614.703H737.289V700.881ZM824.469 788.059V701.881H910.645V788.059H824.469ZM824.469 700.881H910.645V614.703H824.469V700.881ZM911.645 788.059V701.881H997.824V788.059H911.645ZM911.645 700.881H997.824V614.703H911.645V700.881ZM998.824 788.059V701.881L1085 701.881V788.059L998.824 788.059ZM998.824 700.881L1085 700.881V614.703L998.824 614.703V700.881ZM1086 788.059V701.881H1172.18V788.059H1086ZM1086 700.881H1172.18V614.703H1086V700.881ZM1173.18 788.059V701.881H1259.36V788.059H1173.18ZM1173.18 700.881H1259.36V614.703H1173.18V700.881ZM1260.36 788.059V701.881H1346.53V788.059H1260.36ZM1260.36 700.881H1346.53V614.703H1260.36V700.881ZM1347.53 788.059V701.881H1433.71V788.059H1347.53ZM1347.53 700.881H1433.71V614.703H1347.53V700.881ZM1434.71 788.059V701.881H1520.88V788.059H1434.71ZM1434.71 700.881H1520.88V614.703H1434.71V700.881ZM1521.88 788.059V701.881H1608.06V788.059H1521.88ZM1521.88 700.881H1608.06V614.703H1521.88V700.881ZM1609.06 788.059V701.881H1695.24V788.059H1609.06ZM1609.06 700.881H1695.24V614.703H1609.06V700.881ZM1696.24 788.059V701.881H1782.42V788.059H1696.24ZM1696.24 700.881H1782.42V614.703H1696.24V700.881ZM1783.42 788.059V701.881H1869.59V788.059H1783.42ZM1783.42 700.881H1869.59V614.703H1783.42V700.881ZM1870.59 788.059V701.881H1956.77V788.059H1870.59ZM1870.59 700.881H1956.77V614.703H1870.59V700.881ZM1957.77 788.059V701.881H2043.95V788.059H1957.77ZM1957.77 700.881H2043.95V614.703H1957.77V700.881ZM2044.95 788.059V701.881H2131.13V788.059H2044.95ZM2044.95 700.881H2131.13V614.703H2044.95V700.881ZM2132.13 788.059V701.881H2218.3V788.059H2132.13ZM2132.13 700.881H2218.3V614.703H2132.13V700.881ZM2219.3 788.059V701.881H2305.48V788.059H2219.3ZM2219.3 700.881H2305.48V614.703H2219.3V700.881ZM-134.484 700.881H-48.3086V614.703H-134.484V700.881ZM-134.484 1485.48V1399.3H-48.3086V1485.48H-134.484ZM-47.3086 1485.48V1399.3H38.8711V1485.48H-47.3086ZM-47.3086 1398.3H38.8711V1312.12H-47.3086V1398.3ZM39.8711 1485.48V1399.3H126.047V1485.48H39.8711ZM39.8711 1398.3H126.047V1312.12H39.8711V1398.3ZM127.047 1485.48V1399.3H213.227V1485.48H127.047ZM127.047 1398.3H213.227V1312.12H127.047V1398.3ZM214.227 1485.48V1399.3H300.402V1485.48H214.227ZM214.227 1398.3H300.402V1312.12H214.227V1398.3ZM301.402 1485.48V1399.3H387.582V1485.48H301.402ZM301.402 1398.3H387.582V1312.12H301.402V1398.3ZM388.582 1485.48V1399.3H474.758V1485.48H388.582ZM388.582 1398.3H474.758V1312.12H388.582V1398.3ZM475.758 1485.48V1399.3H561.934V1485.48H475.758ZM475.758 1398.3H561.934V1312.12H475.758V1398.3ZM562.934 1485.48V1399.3H649.113V1485.48H562.934ZM562.934 1398.3H649.113V1312.12H562.934V1398.3ZM650.113 1485.48V1399.3H736.289V1485.48H650.113ZM650.113 1398.3H736.289V1312.12H650.113V1398.3ZM737.289 1485.48V1399.3H823.469V1485.48H737.289ZM737.289 1398.3H823.469V1312.12H737.289V1398.3ZM824.469 1485.48V1399.3H910.645V1485.48H824.469ZM824.469 1398.3H910.645V1312.12H824.469V1398.3ZM911.645 1485.48V1399.3H997.824V1485.48H911.645ZM911.645 1398.3H997.824V1312.12H911.645V1398.3ZM998.824 1485.48V1399.3L1085 1399.3V1485.48L998.824 1485.48ZM998.824 1398.3L1085 1398.3V1312.12L998.824 1312.12V1398.3ZM1086 1485.48V1399.3H1172.18V1485.48H1086ZM1086 1398.3H1172.18V1312.12H1086V1398.3ZM1173.18 1485.48V1399.3H1259.36V1485.48H1173.18ZM1173.18 1398.3H1259.36V1312.12H1173.18V1398.3ZM1260.36 1485.48V1399.3H1346.53V1485.48H1260.36ZM1260.36 1398.3H1346.53V1312.12H1260.36V1398.3ZM1347.53 1485.48V1399.3H1433.71V1485.48H1347.53ZM1347.53 1398.3H1433.71V1312.12H1347.53V1398.3ZM1434.71 1485.48V1399.3H1520.88V1485.48H1434.71ZM1434.71 1398.3H1520.88V1312.12H1434.71V1398.3ZM1521.88 1485.48V1399.3H1608.06V1485.48H1521.88ZM1521.88 1398.3H1608.06V1312.12H1521.88V1398.3ZM1609.06 1485.48V1399.3H1695.24V1485.48H1609.06ZM1609.06 1398.3H1695.24V1312.12H1609.06V1398.3ZM1696.24 1485.48V1399.3H1782.42V1485.48H1696.24ZM1696.24 1398.3H1782.42V1312.12H1696.24V1398.3ZM1783.42 1485.48V1399.3H1869.59V1485.48H1783.42ZM1783.42 1398.3H1869.59V1312.12H1783.42V1398.3ZM1870.59 1485.48V1399.3H1956.77V1485.48H1870.59ZM1870.59 1398.3H1956.77V1312.12H1870.59V1398.3ZM1957.77 1485.48V1399.3H2043.95V1485.48H1957.77ZM1957.77 1398.3H2043.95V1312.12H1957.77V1398.3ZM2044.95 1485.48V1399.3H2131.13V1485.48H2044.95ZM2044.95 1398.3H2131.13V1312.12H2044.95V1398.3ZM2132.13 1485.48V1399.3H2218.3V1485.48H2132.13ZM2132.13 1398.3H2218.3V1312.12H2132.13V1398.3ZM2219.3 1485.48V1399.3H2305.48V1485.48H2219.3ZM2219.3 1398.3H2305.48V1312.12H2219.3V1398.3ZM-134.484 1398.3H-48.3086V1312.12H-134.484V1398.3ZM-134.484 876.236V962.414H-48.3086V876.236H-134.484ZM-48.3086 875.236H-134.484V789.059H-48.3086V875.236ZM-47.3086 876.236V962.414H38.8711V876.236H-47.3086ZM38.8711 875.236H-47.3086V789.059H38.8711V875.236ZM39.8711 876.236V962.414H126.047V876.236H39.8711ZM126.047 875.236H39.8711V789.059H126.047V875.236ZM127.047 876.236V962.414H213.227V876.236H127.047ZM213.227 875.236H127.047V789.059H213.227V875.236ZM214.227 876.236V962.414H300.402V876.236H214.227ZM300.402 875.236H214.227V789.059H300.402V875.236ZM301.402 876.236V962.414H387.582V876.236H301.402ZM387.582 875.236H301.402V789.059H387.582V875.236ZM388.582 876.236V962.414H474.758V876.236H388.582ZM474.758 875.236H388.582V789.059H474.758V875.236ZM475.758 876.236V962.414H561.934V876.236H475.758ZM561.934 875.236H475.758V789.059H561.934V875.236ZM562.934 876.236V962.414H649.113V876.236H562.934ZM649.113 875.236H562.934V789.059H649.113V875.236ZM650.113 876.236V962.414H736.289V876.236H650.113ZM736.289 875.236H650.113V789.059H736.289V875.236ZM737.289 876.236V962.414H823.469V876.236H737.289ZM823.469 875.236H737.289V789.059H823.469V875.236ZM824.469 876.236V962.414H910.645V876.236H824.469ZM910.645 875.236H824.469V789.059H910.645V875.236ZM911.645 876.236V962.414H997.824V876.236H911.645ZM997.824 875.236H911.645V789.059H997.824V875.236ZM998.824 876.236V962.414L1085 962.414V876.236L998.824 876.236ZM1085 875.236L998.824 875.236V789.059L1085 789.059V875.236ZM1086 876.236V962.414H1172.18V876.236H1086ZM1172.18 875.236H1086V789.059H1172.18V875.236ZM1173.18 876.236V962.414H1259.36V876.236H1173.18ZM1259.36 875.236H1173.18V789.059H1259.36V875.236ZM1260.36 876.236V962.414H1346.53V876.236H1260.36ZM1346.53 875.236H1260.36V789.059H1346.53V875.236ZM1347.53 876.236V962.414H1433.71V876.236H1347.53ZM1433.71 875.236H1347.53V789.059H1433.71V875.236ZM1434.71 876.236V962.414H1520.88V876.236H1434.71ZM1520.88 875.236H1434.71V789.059H1520.88V875.236ZM1521.88 876.236V962.414H1608.06V876.236H1521.88ZM1608.06 875.236H1521.88V789.059H1608.06V875.236ZM1609.06 876.236V962.414H1695.24V876.236H1609.06ZM1695.24 875.236H1609.06V789.059H1695.24V875.236ZM1696.24 876.236V962.414H1782.42V876.236H1696.24ZM1782.42 875.236H1696.24V789.059H1782.42V875.236ZM1783.42 876.236V962.414H1869.59V876.236H1783.42ZM1869.59 875.236H1783.42V789.059H1869.59V875.236ZM1870.59 876.236V962.414H1956.77V876.236H1870.59ZM1956.77 875.236H1870.59V789.059H1956.77V875.236ZM1957.77 876.236V962.414H2043.95V876.236H1957.77ZM2043.95 875.236H1957.77V789.059H2043.95V875.236ZM2044.95 876.236V962.414H2131.13V876.236H2044.95ZM2131.13 875.236H2044.95V789.059H2131.13V875.236ZM2132.13 876.236V962.414H2218.3V876.236H2132.13ZM2218.3 875.236H2132.13V789.059H2218.3V875.236ZM2219.3 876.236V962.414H2305.48V876.236H2219.3ZM2305.48 875.236H2219.3V789.059H2305.48V875.236Z" fill="url(#paint0_radial_2224_979)" fill-opacity="0.4"/>
<defs>
<radialGradient id="paint0_radial_2224_979" cx="0" cy="0" r="1" gradientUnits="userSpaceOnUse" gradientTransform="translate(1042 825.5) rotate(90) scale(437.5 1446.19)">
<stop stop-color="white"/>
<stop offset="1" stop-color="white" stop-opacity="0"/>
</radialGradient>
</defs>
</svg>
