<svg width="829" height="11" viewBox="0 0 829 11" fill="none" xmlns="http://www.w3.org/2000/svg">
<g clip-path="url(#clip0_2224_1034)">
<path d="M5.97864 0V34H0V0M150.766 0V34H156.745V0M370.166 0V34H376.145V0M24.2832 0V34H30.2618V0M215.311 0V34H221.29V0M235.359 0V34H241.337V0M505.001 0V34H510.979V0M561.201 0V34H567.18V0M823.021 0V34H829V0M615.78 0V34H621.758V0M635.827 0V34H641.806V0M700.359 0V34H706.337V0M720.406 0V34H726.385V0M293.986 0V34H299.964V0M361.299 0V34H367.277V0" fill="#F30003"/>
</g>
<defs>
<clipPath id="clip0_2224_1034">
<rect width="829" height="11" fill="white"/>
</clipPath>
</defs>
</svg>
