<svg width="24" height="25" viewBox="0 0 24 25" fill="none" xmlns="http://www.w3.org/2000/svg">
<g id="ph:copy-bold">
<path id="Vector" d="M20.25 3.125H8.25C7.95163 3.125 7.66548 3.24353 7.4545 3.4545C7.24353 3.66548 7.125 3.95163 7.125 4.25V7.625H3.75C3.45163 7.625 3.16548 7.74353 2.9545 7.9545C2.74353 8.16548 2.625 8.45163 2.625 8.75V20.75C2.625 21.0484 2.74353 21.3345 2.9545 21.5455C3.16548 21.7565 3.45163 21.875 3.75 21.875H15.75C16.0484 21.875 16.3345 21.7565 16.5455 21.5455C16.7565 21.3345 16.875 21.0484 16.875 20.75V17.375H20.25C20.5484 17.375 20.8345 17.2565 21.0455 17.0455C21.2565 16.8345 21.375 16.5484 21.375 16.25V4.25C21.375 3.95163 21.2565 3.66548 21.0455 3.4545C20.8345 3.24353 20.5484 3.125 20.25 3.125ZM14.625 19.625H4.875V9.875H14.625V19.625ZM19.125 15.125H16.875V8.75C16.875 8.45163 16.7565 8.16548 16.5455 7.9545C16.3345 7.74353 16.0484 7.625 15.75 7.625H9.375V5.375H19.125V15.125Z" fill="#FFF84A"/>
</g>
</svg>
