<svg width="30" height="580" viewBox="0 0 30 580" fill="none" xmlns="http://www.w3.org/2000/svg">
<g opacity="0.55" clip-path="url(#clip0_1346_625)">
<path d="M6.91485e-07 578.431L30 578.431" stroke="#323232" stroke-width="2.59241" stroke-miterlimit="10"/>
<path d="M3.45742e-07 549.583L15 549.583" stroke="#323232" stroke-width="2.59241" stroke-miterlimit="10"/>
<path d="M3.45742e-07 520.735L15 520.735" stroke="#323232" stroke-width="2.59241" stroke-miterlimit="10"/>
<path d="M3.45742e-07 491.888L15 491.888" stroke="#323232" stroke-width="2.59241" stroke-miterlimit="10"/>
<path d="M3.45742e-07 463.071L15 463.071" stroke="#323232" stroke-width="2.59241" stroke-miterlimit="10"/>
<path d="M6.91485e-07 434.224L30 434.224" stroke="#323232" stroke-width="2.59241" stroke-miterlimit="10"/>
<path d="M3.45742e-07 405.376L15 405.376" stroke="#323232" stroke-width="2.59241" stroke-miterlimit="10"/>
<path d="M3.45742e-07 376.528L15 376.528" stroke="#323232" stroke-width="2.59241" stroke-miterlimit="10"/>
<path d="M3.45742e-07 347.681L15 347.681" stroke="#323232" stroke-width="2.59241" stroke-miterlimit="10"/>
<path d="M3.45742e-07 318.832L15 318.832" stroke="#323232" stroke-width="2.59241" stroke-miterlimit="10"/>
<path d="M6.91485e-07 289.984L30 289.984" stroke="#323232" stroke-width="2.59241" stroke-miterlimit="10"/>
<path d="M3.45742e-07 261.168L15 261.168" stroke="#323232" stroke-width="2.59241" stroke-miterlimit="10"/>
<path d="M3.45742e-07 232.32L15 232.32" stroke="#323232" stroke-width="2.59241" stroke-miterlimit="10"/>
<path d="M3.45742e-07 203.472L15 203.472" stroke="#323232" stroke-width="2.59241" stroke-miterlimit="10"/>
<path d="M3.45742e-07 174.624L15 174.624" stroke="#323232" stroke-width="2.59241" stroke-miterlimit="10"/>
<path d="M6.91485e-07 145.776L30 145.776" stroke="#323232" stroke-width="2.59241" stroke-miterlimit="10"/>
<path d="M3.45742e-07 116.929L15 116.929" stroke="#323232" stroke-width="2.59241" stroke-miterlimit="10"/>
<path d="M3.45742e-07 88.082L15 88.082" stroke="#323232" stroke-width="2.59241" stroke-miterlimit="10"/>
<path d="M3.45742e-07 59.2334L15 59.2334" stroke="#323232" stroke-width="2.59241" stroke-miterlimit="10"/>
<path d="M3.45742e-07 30.417L15 30.417" stroke="#323232" stroke-width="2.59241" stroke-miterlimit="10"/>
<path d="M6.91485e-07 1.56934L30 1.56934" stroke="#323232" stroke-width="2.59241" stroke-miterlimit="10"/>
</g>
<defs>
<clipPath id="clip0_1346_625">
<rect width="580" height="30" fill="white" transform="matrix(-1.19249e-08 -1 -1 1.19249e-08 30 580)"/>
</clipPath>
</defs>
</svg>
