<svg width="27" height="26" viewBox="0 0 27 26" fill="none" xmlns="http://www.w3.org/2000/svg">
<g id="Group">
<path id="Vector" d="M20.3346 1H7.0013C5.58681 1 4.23026 1.5619 3.23007 2.5621C2.22987 3.56229 1.66797 4.91885 1.66797 6.33333V19.6667C1.66797 21.0812 2.22987 22.4377 3.23007 23.4379C4.23026 24.4381 5.58681 25 7.0013 25H20.3346C21.7491 25 23.1057 24.4381 24.1059 23.4379C25.1061 22.4377 25.668 21.0812 25.668 19.6667V6.33333C25.668 4.91885 25.1061 3.56229 24.1059 2.5621C23.1057 1.5619 21.7491 1 20.3346 1Z" stroke="#F30003" stroke-width="2" stroke-linejoin="round"/>
<path id="Vector_2" d="M13.6693 18.3327C15.0838 18.3327 16.4403 17.7708 17.4405 16.7706C18.4407 15.7704 19.0026 14.4138 19.0026 12.9993C19.0026 11.5849 18.4407 10.2283 17.4405 9.22811C16.4403 8.22792 15.0838 7.66602 13.6693 7.66602C12.2548 7.66602 10.8982 8.22792 9.89803 9.22811C8.89784 10.2283 8.33594 11.5849 8.33594 12.9993C8.33594 14.4138 8.89784 15.7704 9.89803 16.7706C10.8982 17.7708 12.2548 18.3327 13.6693 18.3327Z" stroke="#F30003" stroke-width="2" stroke-linejoin="round"/>
<path id="Vector_3" d="M21.0013 7.00065C21.3549 7.00065 21.6941 6.86018 21.9441 6.61013C22.1942 6.36008 22.3346 6.02094 22.3346 5.66732C22.3346 5.3137 22.1942 4.97456 21.9441 4.72451C21.6941 4.47446 21.3549 4.33398 21.0013 4.33398C20.6477 4.33398 20.3085 4.47446 20.0585 4.72451C19.8084 4.97456 19.668 5.3137 19.668 5.66732C19.668 6.02094 19.8084 6.36008 20.0585 6.61013C20.3085 6.86018 20.6477 7.00065 21.0013 7.00065Z" fill="#F30003"/>
</g>
</svg>
