<svg width="28" height="24" viewBox="0 0 28 24" fill="none" xmlns="http://www.w3.org/2000/svg">
<path id="Vector" d="M8.4919 13.563C10.1337 12.5525 15.2076 8.88665 18.392 6.45607C18.7652 6.17122 19.1444 5.95147 19.5105 5.84067C19.7883 5.75663 20.4805 5.61813 20.974 6.16408C21.4767 6.72034 21.2507 7.4009 21.1323 7.66421C20.9767 8.01054 20.7118 8.34876 20.39 8.66407L20.3897 8.66441C20.0074 9.03868 19.5888 9.44515 19.1498 9.87133C17.9852 11.002 16.6777 12.2715 15.5275 13.4468C14.7364 14.2553 14.0367 15.0022 13.5209 15.6136C13.2624 15.92 13.062 16.1784 12.9225 16.3839C12.8098 16.55 12.7668 16.6387 12.7543 16.6645C12.7533 16.6666 12.7524 16.6683 12.7518 16.6696C12.7514 16.6958 12.7579 16.8116 12.9013 17.0532C13.0694 17.3362 13.3519 17.6647 13.7176 18.0118C14.4443 18.7015 15.3383 19.3155 15.7994 19.6205C17.6464 20.841 19.7094 22.0167 21.1075 22.7845C22.1499 23.3568 23.4396 22.7187 23.6392 21.5054L8.4919 13.563ZM8.4919 13.563C7.78201 13.9997 7.3093 14.2123 6.94642 14.3103C6.6112 14.4009 6.33269 14.404 5.98555 14.3455L5.98528 14.3455C4.35215 14.0707 2.85618 13.6478 1.65589 13.1444L1.65573 13.1444C0.787843 12.7805 0.774058 11.5254 1.65939 11.1484C1.65941 11.1484 1.65944 11.1484 1.65946 11.1484L25.3025 1.08436L8.4919 13.563ZM20.0972 7.75295C20.0972 7.753 20.0959 7.75336 20.0935 7.75388C20.096 7.75316 20.0973 7.7529 20.0972 7.75295ZM19.3097 6.84058C19.3097 6.84057 19.3093 6.84165 19.3083 6.84385C19.3091 6.84169 19.3096 6.84059 19.3097 6.84058ZM26.775 2.2764L23.6393 21.5046L25.3026 1.0843C25.4784 1.00955 25.6701 0.983964 25.8583 1.00973C26.0465 1.03551 26.2254 1.11194 26.3763 1.23224C26.5273 1.3526 26.6449 1.5127 26.7155 1.69667C26.786 1.8806 26.8067 2.08077 26.775 2.27605C26.775 2.27616 26.775 2.27628 26.775 2.2764Z" stroke="#F30003" stroke-width="2"/>
</svg>
