<svg width="35" height="24" viewBox="0 0 35 24" fill="none" xmlns="http://www.w3.org/2000/svg">
<path id="Vector" d="M11.4828 10.7685C11.9033 9.19815 12.3246 7.62828 12.7442 6.05794C13.2592 4.12951 13.7761 2.20154 14.2823 0.270322C14.3384 0.0557422 14.4348 0.000472133 14.6472 0.000936592C16.6776 0.00883239 18.7081 0.00976182 20.7381 8.18438e-06C20.9694 -0.000920733 21.0524 0.0771082 21.1099 0.293082C22.0143 3.71243 22.928 7.12945 23.8394 10.5474C23.8552 10.6059 23.8733 10.6635 23.9038 10.7666C24.1324 9.91109 24.3498 9.10061 24.5649 8.29013C25.2784 5.60092 25.9923 2.9117 26.702 0.221555C26.7446 0.0603873 26.8184 0.00186545 26.9885 0.00232991C29.3662 0.00743896 31.7443 0.00558095 34.122 0.00650987C34.1897 0.00650987 34.2574 0.0157988 34.358 0.0236946C34.2448 0.419878 34.1401 0.794697 34.0302 1.16812C32.3711 6.82616 30.7105 12.4837 29.0514 18.1418C28.5025 20.0131 27.9541 21.8844 27.4136 23.758C27.3617 23.9382 27.2838 23.9995 27.0946 23.9986C25.0721 23.9916 23.0495 23.9921 21.0264 23.9977C20.8429 23.9981 20.7603 23.9498 20.7075 23.7603C19.715 20.2054 18.7141 16.6523 17.7146 13.0991C17.7063 13.0703 17.6975 13.0415 17.6669 12.9417C17.5983 13.1721 17.5459 13.3397 17.4986 13.5083C16.5464 16.8993 15.5915 20.2899 14.6495 23.6842C14.5799 23.9354 14.4724 24.0009 14.2244 24C12.2713 23.9898 10.3178 23.9958 8.36477 23.9935C7.94199 23.993 8.02265 24.0539 7.90212 23.6442C6.74597 19.7191 5.5963 15.7921 4.44431 11.8655C3.3053 7.98313 2.1663 4.10118 1.02775 0.218768C1.01153 0.162568 1.0004 0.104975 0.980469 0.0195147C1.09544 0.0144056 1.18537 0.00650987 1.27484 0.00650987C3.61405 0.00604541 5.95325 0.00883285 8.29246 0.0014015C8.50014 0.000937045 8.58636 0.0613155 8.63967 0.264284C9.54921 3.70639 10.4662 7.14664 11.3822 10.5873C11.3993 10.6519 11.4216 10.7146 11.4415 10.7787C11.455 10.7755 11.4684 10.7722 11.4819 10.7685H11.4828Z" fill="#F30003"/>
</svg>
