<svg width="60" height="61" viewBox="0 0 60 61" fill="none" xmlns="http://www.w3.org/2000/svg">
<path fill-rule="evenodd" clip-rule="evenodd" d="M17.2978 5.58074C14.2812 8.28793 11.8262 10.5548 11.8427 10.6183C11.8849 10.7819 21.2872 13.0283 21.5804 12.9446C21.7138 12.9068 22.5765 12.2062 23.4976 11.3882L25.1724 9.90092L27.5477 10.4838L29.9231 11.0669L32.975 8.63532C37.5734 4.97136 38.0475 4.57721 37.9416 4.51059C37.8007 4.422 35.6875 3.86227 29.9677 2.39857C27.2035 1.69112 24.5173 0.991664 23.9982 0.843886C23.4788 0.695927 22.9932 0.594018 22.9183 0.616857C22.8434 0.639695 20.314 2.87336 17.2975 5.58055L17.2978 5.58074ZM4.05565 17.4067L0.911696 20.2089L2.98341 28.578C4.12286 33.1811 5.10252 36.9354 5.1609 36.9209C5.21927 36.9065 6.80319 35.6787 8.68121 34.1925L12.096 31.4902L9.91227 22.6687L12.0516 23.249C13.6998 23.6956 15.3487 24.14 16.9978 24.5829L19.8047 25.3364L20.7777 24.5572C21.3879 24.0679 21.996 23.5761 22.6018 23.0813C23.0697 22.6978 24.2233 21.777 25.1654 21.0347C26.1074 20.2923 26.9698 19.5665 27.0817 19.4221C27.2305 19.2302 24.6604 18.5162 17.5753 16.7807C12.2347 15.4726 7.7154 14.4477 7.53242 14.5034C7.34944 14.559 5.78493 15.8652 4.05559 17.4065L4.05565 17.4067ZM39.7768 9.1324C37.595 10.877 35.8193 12.3503 35.8307 12.4064C35.8424 12.4625 37.3863 12.945 39.262 13.4785C41.1375 14.0124 42.6846 14.4992 42.6999 14.5609C42.7152 14.6226 41.4394 15.7015 39.8653 16.9589C38.2907 18.2162 34.3122 21.3986 31.0239 24.0309L20.0054 32.8506C17.2337 35.0693 14.7354 37.0691 14.4536 37.295C8.79328 41.831 7.23951 43.0855 7.03312 43.2858C6.82556 43.4875 6.9744 44.324 7.95363 48.465L9.12149 53.4041L12.7717 54.2856L16.4216 55.1672L20.3942 51.9914C22.5792 50.2447 24.3521 48.7562 24.3341 48.6832C24.316 48.6103 23.7853 48.4204 23.1548 48.2599C22.524 48.0996 21.2107 47.7244 20.2361 47.4255C19.2616 47.1266 18.3001 46.8692 18.0988 46.8533C17.8979 46.8375 17.722 46.7664 17.7075 46.6951C17.6932 46.624 19.4307 45.1779 21.5684 43.4811C25.7203 40.1858 28.8948 37.6522 35.7064 32.1982C38.7523 29.7595 41.7992 27.3223 44.8462 24.8851C47.5243 22.7437 50.6365 20.2468 51.762 19.3363L53.8083 17.6809L52.6263 12.6858L51.4446 7.69099L47.7394 6.78434C45.7014 6.28572 43.9687 5.89644 43.8886 5.9193C43.8085 5.94192 41.9579 7.38796 39.7764 9.13275L39.7768 9.1324ZM54.5751 24.5448C54.1514 24.9055 53.3086 25.593 52.7019 26.0726C52.0953 26.5522 50.9463 27.4706 50.1485 28.1139L48.6982 29.283L49.7436 33.6662C50.3185 36.0768 50.7163 38.056 50.6277 38.0645C50.4263 38.083 46.9557 37.2349 43.4491 36.3099C40.9183 35.6424 40.7662 35.6286 40.308 36.0231C40.0431 36.2514 38.4383 37.5281 36.7418 38.8606C35.0453 40.1931 33.6091 41.3549 33.5495 41.4425C33.4904 41.53 37.8593 42.705 43.2587 44.054L53.0755 46.5064L56.298 43.6309C58.0702 42.0497 59.5606 40.6384 59.6099 40.4951C59.721 40.1729 55.6452 23.7742 55.4707 23.8409C55.4016 23.8674 54.9985 24.184 54.5748 24.5446L54.5751 24.5448ZM38.8124 48.879C38.2392 49.3204 37.6663 49.7623 37.0938 50.2043C35.3653 51.5419 35.7525 51.4762 33.1532 50.8744C31.4219 50.4737 30.6992 50.3965 30.4405 50.5848C30.2465 50.7259 28.6002 52.0389 26.782 53.5025C24.9638 54.9661 23.4049 56.181 23.3178 56.2026C22.4557 56.416 24.1054 56.9354 30.3402 58.4143L37.6522 60.1485L40.0405 58.0977C41.354 56.9698 44.0061 54.7055 45.9343 53.0665C47.8621 51.427 49.4053 50.0638 49.3635 50.0372C49.3215 50.0107 47.2398 49.5009 44.7375 48.9044L40.1876 47.82L38.8125 48.8794L38.8124 48.879Z" fill="#F30003"/>
</svg>
