<svg width="91" height="103" viewBox="0 0 91 103" fill="none" xmlns="http://www.w3.org/2000/svg">
<g clip-path="url(#clip0_1347_1038)">
<path fill-rule="evenodd" clip-rule="evenodd" d="M50.0998 37.5104C52.4594 35.6392 55.4055 32.9955 58.2051 29.6339C59.2235 30.9559 59.5725 32.2231 59.4256 33.3364C59.3211 34.1214 58.9675 34.8598 58.434 35.5002C57.8557 36.1926 57.073 36.7738 56.1605 37.1906C54.4296 37.9836 52.2568 38.1918 50.0996 37.5096M53.3999 50.8879L57.3155 52.1681C51.032 57.6673 50.6594 65.4949 49.882 73.2061C46.0566 66.466 42.5533 59.4552 34.5841 56.964L37.6488 54.2111C38.2863 53.803 38.5887 53.0313 38.3975 52.2987C36.6496 45.5988 37.8451 42.2205 39.9134 39.8221C40.655 38.9627 41.5486 38.4214 42.5008 38.2205C43.453 38.0196 44.4892 38.1537 45.5147 38.6403C48.375 39.9997 50.8332 42.6064 51.9417 49.4411C52.0627 50.1886 52.6518 50.7722 53.3991 50.8881L53.3999 50.8879ZM36.2022 8.36233C40.2597 7.6197 44.4698 7.54947 48.3015 8.3329C50.9556 8.87696 53.5175 9.79404 55.924 11.0299C57.0105 11.5878 57.9279 12.1548 58.9459 12.8155C61.2315 12.415 64.0158 9.19429 65.0577 6.51043C64.241 15.7576 54.3154 28.5676 46.7738 34.2596C46.7702 34.2587 46.7675 34.2576 46.7648 34.2565C45.0207 33.4262 43.2099 33.2087 41.5203 33.5652C39.8307 33.9216 38.2621 34.8521 37.0021 36.3162C37 36.3183 36.9981 36.3212 36.9951 36.3227C27.7952 34.1627 13.5414 26.4533 9.05874 18.325C11.096 20.3592 14.9435 22.1816 17.1959 21.6239C17.8605 20.609 18.4705 19.7189 19.2389 18.7697C20.9403 16.6671 22.9142 14.7931 25.1223 13.2232C28.3117 10.9585 32.1906 9.3221 36.2022 8.36233ZM35.2642 40.6403C32.3506 39.8817 28.5868 38.6537 24.6678 36.7096C24.2703 38.3302 24.4629 39.6304 25.0463 40.5897C25.459 41.2656 26.0807 41.7982 26.8274 42.1685C27.637 42.568 28.5878 42.7835 29.5909 42.7962C31.4946 42.8223 33.5663 42.1351 35.2632 40.6397" fill="#F30003"/>
<path fill-rule="evenodd" clip-rule="evenodd" d="M61.2018 25.6097C62.6573 23.353 63.8512 20.9431 64.7718 18.8227L65.7017 19.9348C68.7484 23.7699 70.7627 27.8052 71.7765 32.6103L73.3805 40.2368L74.2543 44.1809C76.4566 53.8526 80.6278 63.2274 87.2787 71.2092L75.6362 65.2836L71.0074 78.1952L62.1428 72.7917L54.3714 94.4688L38.5056 77.7794L32.5794 86.3035L23.1292 76.3623L14.8727 86.4861C17.7323 76.4978 17.7599 66.2364 15.8683 56.4999L15.0743 52.539L13.4607 44.9145C12.4467 40.1086 12.6586 35.6044 13.8971 30.8653L14.2977 29.4725C15.9971 31.0393 18.062 32.7617 20.3052 34.2388L19.9805 35.5606C19.35 38.1276 19.5286 40.8117 20.9255 43.1061C21.8257 44.583 23.1425 45.7353 24.6887 46.5006C26.1901 47.2436 27.8581 47.6063 29.5285 47.6292C30.617 47.6438 31.6957 47.5171 32.7408 47.2625C32.7893 48.7056 32.9859 50.1709 33.2898 51.6428L25.0486 59.0451L33.1474 61.5774C33.7946 61.7802 34.4244 62.0351 35.0294 62.3419C42.1315 66.4445 49.0683 81.5505 53.1701 88.7786C54.0023 80.5096 54.2454 63.8887 59.0849 57.2667C59.5145 56.7424 59.9875 56.2541 60.4976 55.8071L66.8832 50.2189L56.3541 46.7767C56.0366 45.3077 55.6253 43.8877 55.0867 42.548C56.1456 42.3588 57.1835 42.0389 58.1733 41.5857C59.6922 40.89 61.0715 39.8844 62.1448 38.5982C63.25 37.2735 63.9891 35.6875 64.2159 33.9727C64.5671 31.3104 63.6462 28.7829 62.0322 26.6886L61.2012 25.6106L61.2018 25.6097Z" fill="#F30003"/>
</g>
<defs>
<clipPath id="clip0_1347_1038">
<rect width="74" height="88" fill="white" transform="translate(0 16) rotate(-11.9135)"/>
</clipPath>
</defs>
</svg>
