<svg width="61" height="35" viewBox="0 0 61 35" fill="none" xmlns="http://www.w3.org/2000/svg">
<path d="M60.857 11.8212C55.1838 11.9742 52.95 13.8708 51.0408 20.2152C49.2397 26.2174 45.6773 30.6033 40.1019 33.0384C33.5914 35.8788 27.4229 34.9959 21.7629 30.9091C17.292 27.6788 14.8466 27.5552 10.1035 30.5919C5.48572 33.5484 3.79886 34.0191 0.122325 33.1921C0.832621 32.6113 1.33421 32.1221 1.9022 31.7542C16.9207 21.9456 31.9404 12.153 46.9731 2.36884C50.2952 0.204132 53.6523 0.164152 56.9074 2.27362C60.2184 4.42295 61.2535 7.70581 60.857 11.8212ZM37.1237 24.663C35.7969 24.9998 33.7325 25.9055 31.6607 25.9672C28.4298 26.0693 26.1634 23.9571 24.8227 21.8531C23.356 22.414 22.1325 22.8863 20.754 23.4159C23.5872 28.3923 27.4085 30.8284 32.5913 30.5566C37.9468 30.2793 41.9542 27.5119 44.1938 22.3845C46.1902 17.8037 45.7715 13.3908 43.1313 9.3035C41.7641 10.099 40.6212 10.7593 39.6023 11.3444C40.1362 13.1161 40.6489 14.809 41.2313 16.7346C38.8756 16.4696 36.8557 16.7333 36.3951 18.9065C36.0647 20.4584 36.7714 22.2246 37.1297 24.6592L37.1237 24.663Z" fill="#F30003"/>
</svg>
