<svg width="46" height="232" viewBox="0 0 46 232" fill="none" xmlns="http://www.w3.org/2000/svg">
<path d="M5.62976 0C6.87901 0.196002 8.89703 0.343001 10.1943 0.343001H36.3805C37.822 0.343001 39.5036 0.196002 40.849 0V6.76205C39.4556 6.61504 37.7739 6.51704 36.3805 6.51704H10.1943C8.89703 6.51704 6.87901 6.61504 5.62976 6.76205V0ZM19.5156 30.1842V3.77302H26.1943V30.1842H19.5156ZM2.55469 26.1662C4.09223 26.4112 5.82195 26.5582 7.2634 26.5582H38.9751C40.6568 26.5582 42.1943 26.3132 43.4436 26.1662V33.2222C42.0982 33.0752 40.0802 33.0262 38.9751 33.0262H7.2634C5.87 33.0262 4.14027 33.0752 2.55469 33.2222V26.1662Z" fill="black"/>
<path d="M36.2824 71.1861C37.5032 72.9349 39.2611 76.044 40.189 77.8414L36.2335 79.4931C35.2569 77.5013 33.7431 74.6352 32.4246 72.7406L36.2824 71.1861ZM42.0934 69C43.3631 70.7974 45.1698 73.9065 46 75.6068L42.1422 77.2584C41.1168 75.2181 39.5541 72.4005 38.1868 70.5545L42.0934 69ZM7.61783 94.7955C9.76645 89.4032 11.6221 82.5536 12.2569 76.3354L19.3376 77.8414C18.9469 79.2016 18.3609 81.582 18.1656 82.6993C17.482 86.0998 15.724 92.7552 14.0149 97.273C12.2569 101.985 9.3758 107.523 6.83652 111.167L0 108.3C3.0276 104.317 5.9087 99.119 7.61783 94.7955ZM31.6921 93.8239C29.8365 88.7231 26.7113 81.5334 24.6115 77.8414L31.1062 75.7525C33.1571 79.4931 36.4777 86.9743 38.3333 91.6379C40.0913 96.0586 42.6794 103.783 43.9979 108.592L36.7707 110.924C35.4522 105.191 33.6454 99.0705 31.6921 93.8239Z" fill="black"/>
<path d="M3.83203 146.944C5.57018 147.09 8.95254 147.284 11.3953 147.284C16.9386 147.284 32.4411 147.284 36.6221 147.284C38.83 147.284 40.897 147.041 42.1654 146.944V154.611C41.0379 154.562 38.6421 154.32 36.669 154.32C32.3941 154.32 16.9386 154.32 11.3953 154.32C8.76463 154.32 5.61716 154.465 3.83203 154.611V146.944Z" fill="black"/>
<path d="M9.44286 224.471C9.44286 220.7 9.44286 200.427 9.44286 196.314C9.44286 194.551 9.29359 192.152 8.94531 190.389H16.707C16.5079 192.152 16.2592 194.257 16.2592 196.314C16.2592 201.7 16.3089 220.847 16.3089 224.471C16.3089 225.842 16.5079 229.27 16.7567 231.278H8.94531C9.29359 229.368 9.44286 226.381 9.44286 224.471ZM14.8163 203.072C21.4336 204.883 32.1805 208.752 37.0564 211.102L34.2702 217.909C28.5982 215.02 20.2395 211.886 14.8163 210.123V203.072Z" fill="black"/>
</svg>
