<svg width="56" height="44" viewBox="0 0 56 44" fill="none" xmlns="http://www.w3.org/2000/svg">
<path d="M56 8.93699C50.3192 10.4208 48.5306 12.7897 48.1546 19.4052C47.804 25.6627 45.2837 30.7638 40.2584 34.4425C34.3896 38.7352 27.9568 39.3287 21.2547 36.6886C15.9601 34.6011 13.4652 35.0565 9.42564 39.124C5.49279 43.0842 3.90745 43.9386 0 44C0.574177 43.2683 0.960348 42.6748 1.44306 42.1837C14.1867 29.1163 26.9355 16.0642 39.6995 3.01727C42.5196 0.131591 45.8935 -0.697274 49.6891 0.586954C53.5509 1.89676 55.3953 4.84384 56 8.93699ZM35.2128 27.0032C33.9577 27.6427 32.098 29.0088 30.0249 29.5563C26.7932 30.4158 23.9935 28.8962 22.1287 27.1669C20.7872 28.0572 19.6694 28.8042 18.4092 29.6433C22.4793 33.8132 26.9253 35.2816 32.0827 33.7978C37.4129 32.268 40.7767 28.6353 41.7828 23.1249C42.6771 18.2029 41.1781 14.0125 37.5196 10.6612C36.3357 11.7562 35.3449 12.6669 34.4608 13.4753C35.4313 15.0716 36.3611 16.5963 37.418 18.3308C34.979 18.6275 33.0075 19.3592 33.0736 21.5797C33.1193 23.1658 34.2626 24.7161 35.2179 26.998L35.2128 27.0032Z" fill="black"/>
</svg>
