<svg width="38" height="44" viewBox="0 0 38 44" fill="none" xmlns="http://www.w3.org/2000/svg">
<g clip-path="url(#clip0_1319_625)">
<path fill-rule="evenodd" clip-rule="evenodd" d="M22.8079 15.6946C24.1614 15.0227 25.8833 14.0334 27.6076 12.6778C27.971 13.4296 28.0111 14.0856 27.8235 14.6151C27.6907 14.9884 27.4404 15.3131 27.1119 15.5714C26.7559 15.8504 26.311 16.054 25.8194 16.1637C24.8866 16.373 23.7973 16.2506 22.8079 15.6941M23.0426 22.5799L24.8341 23.6104C21.1762 25.6522 20.1815 29.4432 19 33.1355C17.819 29.4432 16.8243 25.6517 13.1664 23.6104L14.9579 22.5799C15.3134 22.4461 15.542 22.0997 15.524 21.7216C15.3597 18.2634 16.2975 16.734 17.5625 15.7741C18.016 15.4302 18.5113 15.2576 19 15.2576C19.4888 15.2576 19.9841 15.4302 20.4376 15.7741C21.7022 16.7344 22.6399 18.2634 22.4761 21.7216C22.4581 22.0997 22.6871 22.4461 23.0422 22.5799H23.0426ZM19.0005 0C21.0713 0.0554809 23.1475 0.455677 24.9492 1.23445C26.1971 1.77457 27.361 2.48766 28.4154 3.34068C28.8915 3.72579 29.2835 4.09783 29.7153 4.52618C30.88 4.56616 32.5822 3.27786 33.3724 2.07237C32.0123 6.51207 25.8067 11.7546 21.5105 13.7609C21.5089 13.7601 21.5076 13.7593 21.5064 13.7584C20.7354 13.1722 19.8681 12.8789 19.0009 12.8789C18.1336 12.8789 17.2663 13.1722 16.4953 13.7584C16.4941 13.7593 16.4929 13.7605 16.4912 13.7609C12.1942 11.7546 5.989 6.51166 4.62891 2.07237C5.41916 3.27786 7.12091 4.56657 8.2856 4.52618C8.71739 4.09824 9.10944 3.72579 9.58547 3.34068C10.6395 2.48766 11.8038 1.77457 13.0517 1.23445C14.8538 0.455677 16.9296 0.0554809 19.0005 0ZM15.193 15.6946C13.8399 15.0227 12.1176 14.0334 10.3933 12.6778C10.03 13.4296 9.98982 14.0856 10.177 14.6151C10.3098 14.9884 10.5601 15.3131 10.8886 15.5714C11.245 15.8504 11.6899 16.054 12.1815 16.1637C13.1144 16.373 14.2037 16.2506 15.1926 15.6941" fill="black"/>
<path fill-rule="evenodd" clip-rule="evenodd" d="M29.4962 11.0183C30.4454 10.0645 31.2819 9.00877 31.9542 8.06641L32.2958 8.70648C33.3954 10.8972 33.9669 13.0793 33.9669 15.5347L33.9644 19.4314L33.9849 21.4512C34.0644 26.4102 35.1422 31.4271 37.583 36.0186L32.4761 31.9179L28.8628 37.7568L25.0669 34.1983L19.0005 44.0013L12.9341 34.1987L9.13815 37.7572L5.52489 31.9183L0.417969 36.019C2.85877 31.4275 3.93619 26.4102 4.01608 21.4516L4.03656 19.4318L4.0341 15.5351C4.0341 13.0793 4.60518 10.8976 5.70514 8.70688L6.04639 8.06681C6.71907 9.00877 7.5552 10.0645 8.5044 11.0187L8.2078 11.6319C7.63181 12.8227 7.44131 14.1542 7.8899 15.4209C8.17912 16.2364 8.70677 16.936 9.38723 17.47C10.048 17.9885 10.8301 18.3381 11.6486 18.5217C12.182 18.6412 12.7252 18.6906 13.2651 18.6739C13.1394 19.3849 13.0841 20.1221 13.0808 20.8735L8.26351 23.6443L11.9808 25.7191C12.2778 25.8851 12.5609 26.0748 12.8264 26.2874C15.8911 29.0276 17.7338 37.1339 19.0001 41.0934C20.2664 37.1339 22.1091 29.0276 25.1738 26.2874C25.4392 26.0753 25.7223 25.8851 26.0193 25.7191L29.7367 23.6443L24.9194 20.8735C24.9157 20.1221 24.8608 19.3849 24.735 18.6739C25.275 18.6906 25.8182 18.6412 26.3516 18.5217C27.1701 18.3381 27.9521 17.9885 28.6129 17.47C29.2934 16.936 29.821 16.2364 30.1103 15.4209C30.5589 14.1546 30.3684 12.8231 29.7924 11.6319L29.4958 11.0187L29.4962 11.0183Z" fill="black"/>
</g>
<defs>
<clipPath id="clip0_1319_625">
<rect width="37.1651" height="44" fill="white" transform="translate(0.417969)"/>
</clipPath>
</defs>
</svg>
