<svg width="185" height="33" viewBox="0 0 185 33" fill="none" xmlns="http://www.w3.org/2000/svg">
<path d="M175.578 0.557617V9.82128H165.711V31.6663H155.586V9.82128H145.719V0.557617H175.578Z" fill="black"/>
<path d="M113.832 31.6663V0.557617H134.083C136.582 0.787414 138.636 1.44808 140.244 2.53961C141.853 3.63114 143.031 5.0961 143.777 6.93447C144.352 9.69202 144.381 11.8176 143.864 13.3113C143.347 14.805 142.442 16.0545 141.149 17.0599C139.856 18.0652 138.004 18.8552 135.591 19.4296L137.918 22.4026H147.224V31.6663H134.945L125.078 21.3901V31.6663H113.832ZM125.078 8.31324V14.0438H132.919C133.336 14.0438 133.788 13.893 134.277 13.5914C134.765 13.2754 135.024 12.4927 135.052 11.2431C134.98 10.0511 134.686 9.26834 134.169 8.89492C133.666 8.50714 133.243 8.31324 132.898 8.31324H125.078Z" fill="black"/>
<path d="M84.5352 31.6663V0.557617H111.206V9.82128H94.6606V13.3975H105.346V18.8264H94.6606V22.4026H113.834V31.6663H84.5352Z" fill="black"/>
<path d="M49.4609 31.6663V0.557617H70.6812C74.0851 0.586342 76.6703 1.17519 78.4368 2.32418C80.2178 3.47316 81.2949 5.3977 81.6683 8.09781C81.7976 10.166 81.3596 11.7889 80.3542 12.9666C79.3488 14.1443 77.69 15.1138 75.3777 15.875V15.9612C76.5123 16.1048 77.5607 16.4136 78.523 16.8875C79.4853 17.3471 80.2896 17.9001 80.9359 18.5464C81.5965 19.1783 82.1064 19.8964 82.4655 20.7007C82.8245 21.505 83.004 22.2949 83.004 23.0705C83.004 25.5264 82.3721 27.3863 81.1082 28.6502C79.8587 29.9141 78.2429 30.7399 76.2609 31.1277C74.2933 31.5155 71.902 31.695 69.087 31.6663H49.4609ZM60.1896 19.6235V25.3756H67.105C68.2971 25.4187 69.3383 25.1602 70.2288 24.6001C71.1192 24.0399 71.5645 23.3505 71.5645 22.5319C71.6507 21.6271 71.2844 20.9161 70.4658 20.3991C69.6615 19.8821 68.5412 19.6235 67.105 19.6235H60.1896ZM60.1896 8.09781V12.8158H67.7298C68.1463 12.8158 68.5843 12.6004 69.0439 12.1695C69.5035 11.7243 69.7477 11.1354 69.7764 10.403C69.7189 9.55558 69.4389 8.95955 68.9362 8.61485C68.4479 8.27016 68.0385 8.09781 67.7082 8.09781H60.1896Z" fill="black"/>
<path d="M20.1622 31.6663V9.82128H13.6992V0.557617H46.833V9.82128H30.2876V13.3975H40.9732V18.8264H30.2876V22.4026H49.4613V31.6663H20.1622Z" fill="black"/>
<path fill-rule="evenodd" clip-rule="evenodd" d="M176.021 0.113281V10.2653H166.154V32.1103H155.14V10.2653H145.273V0.113281H176.021ZM155.584 9.82112V31.6661H165.71V9.82112H175.577V0.557452H145.718V9.82112H155.584Z" fill="black"/>
<path fill-rule="evenodd" clip-rule="evenodd" d="M113.387 32.1103V31.6661H125.077V21.3899L134.943 31.6661H147.223V22.4025H137.916L135.59 19.4295C135.75 19.3914 135.907 19.3524 136.062 19.3124C138.246 18.7493 139.941 17.9984 141.148 17.0597C142.441 16.0543 143.345 14.8048 143.862 13.3112C144.379 11.8175 144.351 9.69186 143.776 6.9343C143.029 5.09593 141.852 3.63098 140.243 2.53945C138.635 1.44791 136.581 0.787249 134.082 0.557452H113.831L113.831 22.4025H113.387V0.113281H134.102L134.122 0.115147C136.675 0.349871 138.806 1.02768 140.493 2.17191C142.175 3.31381 143.409 4.84921 144.188 6.76713L144.203 6.80436L144.211 6.84371C144.791 9.62676 144.839 11.8483 144.282 13.4564C143.736 15.0344 142.779 16.3542 141.421 17.4103C140.185 18.3711 138.49 19.1267 136.36 19.6934L138.133 21.9583H147.667V32.1103H134.754L125.521 22.4938V32.1103H113.387ZM133.902 9.25072L133.897 9.24644C133.414 8.87455 133.09 8.75725 132.897 8.75725H125.521V13.5995H132.918C133.226 13.5995 133.596 13.4881 134.038 13.2161C134.167 13.1312 134.304 12.9595 134.414 12.6279C134.523 12.2972 134.592 11.8433 134.607 11.2513C134.535 10.097 134.251 9.50252 133.908 9.25483L133.902 9.25072ZM135.051 11.243C135.022 12.4925 134.764 13.2752 134.276 13.5912C133.787 13.8928 133.335 14.0436 132.918 14.0436H125.077V8.31308H132.897C133.242 8.31308 133.665 8.50697 134.168 8.89475C134.685 9.26817 134.979 10.0509 135.051 11.243Z" fill="black"/>
<path fill-rule="evenodd" clip-rule="evenodd" d="M84.0898 32.1103V0.113281H111.649V10.2653H95.1036V12.9532H105.789V19.2704H95.1036V21.9583H113.833V22.4025H94.6594V18.8263H105.345V13.3973H94.6594V9.82112H111.205V0.557452H84.534V31.6661H114.277V32.1103H84.0898Z" fill="black"/>
<path fill-rule="evenodd" clip-rule="evenodd" d="M49.0156 32.1103V31.6661H69.0858C71.9008 31.6949 74.2922 31.5153 76.2598 31.1276C78.2418 30.7398 79.8576 29.9139 81.1071 28.6501C82.3709 27.3862 83.0029 25.5263 83.0029 23.0703C83.0029 22.2948 82.8234 21.5048 82.4643 20.7005C82.1052 19.8963 81.5954 19.1781 80.9347 18.5462C80.2884 17.8999 79.4841 17.3469 78.5219 16.8874C77.7768 16.5204 76.9801 16.2524 76.1317 16.0835C75.8939 16.0361 75.6521 15.9966 75.4061 15.9648C75.3963 15.9635 75.3864 15.9622 75.3765 15.961V15.8748C75.3803 15.8736 75.3841 15.8723 75.3879 15.8711C75.6307 15.791 75.8663 15.7086 76.0946 15.624C78.0355 14.9043 79.455 14.0185 80.353 12.9665C81.3584 11.7887 81.7965 10.1658 81.6672 8.09764C81.2938 5.39754 80.2166 3.47299 78.4357 2.32401C76.6691 1.17503 74.0839 0.586177 70.6801 0.557452H49.4598V22.4025H49.0156V0.113281H70.6819L70.6838 0.113296C74.1247 0.142333 76.8084 0.73602 78.6772 1.95124C80.5958 3.18941 81.7215 5.24819 82.1072 8.0368L82.1095 8.05331L82.1105 8.06994C82.2445 10.2132 81.7936 11.9631 80.6909 13.2548C79.8294 14.264 78.5445 15.1063 76.868 15.7983C77.5129 15.9693 78.1291 16.199 78.7158 16.4878C79.7134 16.9645 80.5592 17.5434 81.2453 18.2287C81.9443 18.8981 82.4871 19.6621 82.8699 20.5195C83.2509 21.373 83.4471 22.2244 83.4471 23.0703C83.4471 25.5984 82.7959 27.5887 81.4222 28.9631C80.1018 30.2983 78.4019 31.161 76.3451 31.5635C74.3392 31.9587 71.9167 32.1391 69.0838 32.1103H49.0156ZM67.1119 24.9313L67.1199 24.9316C68.2352 24.9719 69.186 24.7304 69.9911 24.2239C70.7942 23.7188 71.1192 23.1541 71.1192 22.5317V22.5106L71.1212 22.4896C71.1573 22.11 71.0975 21.7932 70.9584 21.5233C70.8185 21.2518 70.5839 20.9996 70.2274 20.7745L70.2259 20.7735L70.2244 20.7726C69.5193 20.3192 68.4949 20.0675 67.1038 20.0675H60.6326V24.9313H67.1119ZM60.1884 25.3755V19.6234H67.1038C68.5401 19.6234 69.6603 19.8819 70.4646 20.3989C71.2833 20.916 71.6495 21.6269 71.5633 22.5317C71.5633 23.3504 71.1181 24.0398 70.2276 24.5999C69.3372 25.16 68.2959 25.4185 67.1038 25.3755H60.1884ZM68.6814 8.9793L68.6789 8.97756C68.2126 8.64844 67.8972 8.54182 67.7071 8.54182H60.6326V12.3715H67.7286C67.9857 12.3715 68.3191 12.2382 68.7363 11.8478C69.0957 11.4983 69.3014 11.0319 69.3304 10.4089C69.2749 9.65544 69.0313 9.21925 68.6838 8.98101L68.6814 8.9793ZM69.7752 10.4028C69.7465 11.1353 69.5023 11.7241 69.0428 12.1693C68.5832 12.6002 68.1451 12.8157 67.7286 12.8157H60.1884V8.09764H67.7071C68.0374 8.09764 68.4467 8.26999 68.935 8.61469C69.4377 8.95938 69.7178 9.55542 69.7752 10.4028Z" fill="black"/>
<path fill-rule="evenodd" clip-rule="evenodd" d="M19.7169 32.1103V10.2653H13.2539V0.113281H47.276V10.2653H30.7307V12.9532H41.4162V19.2704H30.7307V21.9583H49.4601V22.4025H30.2865V18.8263H40.972V13.3973H30.2865V9.82112H46.8318V0.557452H13.6981V9.82112H20.1611V31.6661H49.9043V32.1103H19.7169Z" fill="black"/>
<rect x="183.054" y="24.0124" width="5.98293" height="6.13098" transform="rotate(90 183.054 24.0124)" fill="black" stroke="black" stroke-width="3.19659"/>
<rect x="8.82358" y="1.72232" width="6.94685" height="7.22476" transform="rotate(90 8.82358 1.72232)" fill="black" stroke="black" stroke-width="3.19659"/>
</svg>
