<svg width="320" height="37" viewBox="0 0 320 37" fill="none" xmlns="http://www.w3.org/2000/svg">
<rect width="319.323" height="37" fill="black"/>
<path d="M23.5379 25H17.0399L17.0399 12.454H23.5739C27.8759 12.454 30.3959 14.758 30.3959 18.826C30.3959 22.822 27.9479 25 23.5379 25ZM20.3339 15.136L20.3339 22.318H22.8899C23.8979 22.318 27.0839 22.318 27.0839 18.736C27.0839 15.766 24.9959 15.136 23.1599 15.136L20.3339 15.136ZM42.2087 25H31.8407L31.8407 12.454H42.2087V14.83H35.0987V17.476H41.7227V19.888H35.0987V22.624H42.2087V25ZM50.3969 25.306C45.7889 25.306 44.0969 23.668 43.2149 21.364L46.4189 20.716C47.0849 22.174 48.5609 22.84 50.4149 22.84C51.9269 22.84 52.7909 22.444 52.7909 21.49C52.7909 20.68 52.0709 20.374 49.6409 19.996C46.8509 19.564 44.2049 19.024 44.2049 16.018C44.2049 13.552 46.2749 12.148 49.5689 12.148C52.0529 12.148 53.8349 12.796 55.4369 14.326L53.2949 16.09C52.3229 15.154 50.8469 14.614 49.3349 14.614C48.0929 14.614 47.4629 14.974 47.4629 15.712C47.4629 16.378 48.1289 16.666 50.4689 17.08C52.7189 17.476 56.0489 18.07 56.0489 21.166C56.0489 23.596 54.2669 25.306 50.3969 25.306ZM60.7636 25H57.4696V12.454H60.7636V25ZM73.4363 20.428H70.3403V18.106H76.7483V25H74.3543L74.1923 23.83C73.2023 24.892 71.6003 25.306 69.6923 25.306C64.9223 25.306 62.1683 22.588 62.1683 18.844C62.1683 14.758 65.1563 12.148 69.8183 12.148C73.0223 12.148 75.5603 13.408 76.7483 15.874L73.6703 16.828C72.9863 15.334 71.8703 14.614 69.7823 14.614C66.7763 14.614 65.4263 16.216 65.4263 18.754C65.4263 21.22 66.8663 22.84 69.9263 22.84C72.6803 22.84 73.3643 21.67 73.4363 20.428ZM87.7099 20.194V12.454L90.9859 12.454V25H87.9619L81.7159 17.224V25H78.4579V12.454H81.4639L87.7099 20.194ZM103.258 25L92.8895 25V12.454L103.258 12.454V14.83H96.1475V17.476H102.772V19.888H96.1475V22.624H103.258V25ZM111.464 25H104.966V12.454H111.5C115.802 12.454 118.322 14.758 118.322 18.826C118.322 22.822 115.874 25 111.464 25ZM108.26 15.136V22.318H110.816C111.824 22.318 115.01 22.318 115.01 18.736C115.01 15.766 112.922 15.136 111.086 15.136L108.26 15.136ZM133.707 25H125.427V12.454H133.023C135.651 12.454 137.289 13.66 137.289 15.622C137.289 16.702 136.857 17.656 136.029 18.196C137.325 18.718 137.991 19.78 137.991 21.274C137.991 23.578 136.335 25 133.707 25ZM128.721 14.83V17.386L132.681 17.386C133.527 17.386 133.977 16.936 133.977 16.09C133.977 15.28 133.527 14.83 132.681 14.83H128.721ZM128.721 19.708V22.624L133.113 22.624C134.121 22.624 134.679 22.066 134.679 21.094C134.679 20.176 134.139 19.708 133.113 19.708L128.721 19.708ZM146.408 25H143.15V19.87L137.39 12.454L141.368 12.454L144.716 17.458L148.118 12.454H152.078L146.408 19.87V25Z" fill="#F30003"/>
<path d="M174.608 11.2559L184.384 27.6173L164.833 27.6173L174.608 11.2559Z" fill="#F30003"/>
<path d="M190.843 19.625L182.824 6.40269L198.861 6.40269L190.843 19.625Z" fill="#F30003"/>
<path d="M287.469 17.987C287.469 16.4738 287.81 15.1418 288.492 13.9909C289.195 12.84 290.143 11.9449 291.337 11.3055C292.53 10.6448 293.884 10.3145 295.397 10.3145C296.91 10.3145 298.253 10.6448 299.425 11.3055C300.619 11.9449 301.567 12.84 302.27 13.9909C302.974 15.1418 303.325 16.4738 303.325 17.987C303.325 19.4789 302.974 20.8109 302.27 21.9831C301.567 23.134 300.619 24.0398 299.425 24.7005C298.253 25.3399 296.91 25.6595 295.397 25.6595C293.884 25.6595 292.53 25.3399 291.337 24.7005C290.143 24.0398 289.195 23.134 288.492 21.9831C287.81 20.8109 287.469 19.4789 287.469 17.987ZM291.017 17.987C291.017 18.9034 291.209 19.7133 291.593 20.4166C291.976 21.0986 292.499 21.6421 293.159 22.0471C293.82 22.4307 294.566 22.6225 295.397 22.6225C296.207 22.6225 296.942 22.4307 297.603 22.0471C298.285 21.6421 298.818 21.0986 299.201 20.4166C299.585 19.7133 299.777 18.9034 299.777 17.987C299.777 17.0706 299.585 16.2607 299.201 15.5574C298.818 14.854 298.285 14.3106 297.603 13.9269C296.942 13.5433 296.207 13.3515 295.397 13.3515C294.566 13.3515 293.82 13.5433 293.159 13.9269C292.499 14.3106 291.976 14.854 291.593 15.5574C291.209 16.2607 291.017 17.0706 291.017 17.987Z" fill="#F30003"/>
<path d="M271.641 10.6348H275.413L279.249 20.1295L283.086 10.6348H286.89L279.249 26.6832L271.641 10.6348Z" fill="#F30003"/>
<path d="M255.215 17.987C255.215 16.4738 255.556 15.1418 256.238 13.9909C256.941 12.84 257.89 11.9449 259.083 11.3055C260.277 10.6448 261.63 10.3145 263.143 10.3145C264.656 10.3145 265.999 10.6448 267.171 11.3055C268.365 11.9449 269.313 12.84 270.016 13.9909C270.72 15.1418 271.071 16.4738 271.071 17.987C271.071 19.4789 270.72 20.8109 270.016 21.9831C269.313 23.134 268.365 24.0398 267.171 24.7005C265.999 25.3399 264.656 25.6595 263.143 25.6595C261.63 25.6595 260.277 25.3399 259.083 24.7005C257.89 24.0398 256.941 23.134 256.238 21.9831C255.556 20.8109 255.215 19.4789 255.215 17.987ZM258.763 17.987C258.763 18.9034 258.955 19.7133 259.339 20.4166C259.722 21.0986 260.245 21.6421 260.905 22.0471C261.566 22.4307 262.312 22.6225 263.143 22.6225C263.953 22.6225 264.688 22.4307 265.349 22.0471C266.031 21.6421 266.564 21.0986 266.947 20.4166C267.331 19.7133 267.523 18.9034 267.523 17.987C267.523 17.0706 267.331 16.2607 266.947 15.5574C266.564 14.854 266.031 14.3106 265.349 13.9269C264.688 13.5433 263.953 13.3515 263.143 13.3515C262.312 13.3515 261.566 13.5433 260.905 13.9269C260.245 14.3106 259.722 14.854 259.339 15.5574C258.955 16.2607 258.763 17.0706 258.763 17.987Z" fill="#F30003"/>
<path d="M248.377 16.3886C248.377 15.3016 248.153 14.4811 247.706 13.9269C247.258 13.3728 246.565 13.0958 245.628 13.0958C244.988 13.0958 244.423 13.2343 243.933 13.5113C243.443 13.7671 243.059 14.1507 242.782 14.6622C242.505 15.1524 242.367 15.7279 242.367 16.3886V25.3399H238.914V10.6341H242.367V12.9039C242.836 12.0301 243.432 11.3801 244.157 10.9538C244.903 10.5276 245.787 10.3145 246.81 10.3145C248.473 10.3145 249.741 10.826 250.615 11.849C251.489 12.8507 251.925 14.236 251.925 16.0049V25.3399H248.377V16.3886Z" fill="#F30003"/>
<path d="M226.026 20.5125C226.495 21.0241 226.964 21.4716 227.432 21.8552C227.923 22.2176 228.413 22.4946 228.903 22.6864C229.393 22.8569 229.883 22.9422 230.374 22.9422C230.992 22.9422 231.471 22.8037 231.812 22.5266C232.174 22.2495 232.356 21.8659 232.356 21.3757C232.356 20.9495 232.217 20.5871 231.94 20.2888C231.663 19.9691 231.279 19.7027 230.789 19.4895C230.299 19.2551 229.724 19.0207 229.063 18.7862C228.402 18.5305 227.741 18.2321 227.081 17.8911C226.441 17.5288 225.909 17.0599 225.482 16.4845C225.077 15.909 224.875 15.1844 224.875 14.3106C224.875 13.4154 225.099 12.6695 225.546 12.0727C226.015 11.476 226.633 11.0391 227.4 10.762C228.189 10.4636 229.031 10.3145 229.926 10.3145C230.736 10.3145 231.492 10.4317 232.196 10.6661C232.92 10.9006 233.57 11.2096 234.146 11.5932C234.721 11.9768 235.212 12.4137 235.616 12.9039L233.698 14.95C233.208 14.3745 232.622 13.9056 231.94 13.5433C231.258 13.181 230.555 12.9998 229.83 12.9998C229.34 12.9998 228.935 13.1064 228.615 13.3195C228.296 13.5327 228.136 13.8417 228.136 14.2466C228.136 14.5876 228.274 14.8967 228.551 15.1737C228.85 15.4295 229.233 15.6639 229.702 15.877C230.192 16.0902 230.736 16.314 231.333 16.5484C232.142 16.8681 232.888 17.2197 233.57 17.6034C234.252 17.987 234.796 18.4559 235.201 19.01C235.627 19.5641 235.84 20.2888 235.84 21.1839C235.84 22.5692 235.361 23.6881 234.402 24.5406C233.464 25.3718 232.185 25.7874 230.565 25.7874C229.564 25.7874 228.637 25.6382 227.784 25.3399C226.953 25.0202 226.218 24.6152 225.578 24.125C224.96 23.6135 224.438 23.0807 224.012 22.5266L226.026 20.5125Z" fill="#F30003"/>
<path d="M206.227 17.987C206.227 16.4738 206.568 15.1418 207.25 13.9909C207.953 12.84 208.901 11.9449 210.095 11.3055C211.288 10.6448 212.642 10.3145 214.155 10.3145C215.668 10.3145 217.011 10.6448 218.183 11.3055C219.376 11.9449 220.325 12.84 221.028 13.9909C221.732 15.1418 222.083 16.4738 222.083 17.987C222.083 19.4789 221.732 20.8109 221.028 21.9831C220.325 23.134 219.376 24.0398 218.183 24.7005C217.011 25.3399 215.668 25.6595 214.155 25.6595C212.642 25.6595 211.288 25.3399 210.095 24.7005C208.901 24.0398 207.953 23.134 207.25 21.9831C206.568 20.8109 206.227 19.4789 206.227 17.987ZM209.775 17.987C209.775 18.9034 209.967 19.7133 210.351 20.4166C210.734 21.0986 211.256 21.6421 211.917 22.0471C212.578 22.4307 213.324 22.6225 214.155 22.6225C214.965 22.6225 215.7 22.4307 216.361 22.0471C217.043 21.6421 217.576 21.0986 217.959 20.4166C218.343 19.7133 218.535 18.9034 218.535 17.987C218.535 17.0706 218.343 16.2607 217.959 15.5574C217.576 14.854 217.043 14.3106 216.361 13.9269C215.7 13.5433 214.965 13.3515 214.155 13.3515C213.324 13.3515 212.578 13.5433 211.917 13.9269C211.256 14.3106 210.734 14.854 210.351 15.5574C209.967 16.2607 209.775 17.0706 209.775 17.987Z" fill="#F30003"/>
</svg>
