<svg width="38" height="33" viewBox="0 0 38 33" fill="none" xmlns="http://www.w3.org/2000/svg">
<path fill-rule="evenodd" clip-rule="evenodd" d="M33.4099 0.332203C33.8655 0.13836 34.3641 0.0715042 34.8539 0.138595C35.3437 0.205685 35.8068 0.40427 36.1949 0.713679C36.583 1.02309 36.882 1.43201 37.0608 1.89788C37.2395 2.36375 37.2915 2.86954 37.2113 3.36261L33.0302 29.0018C32.6246 31.4749 29.9404 32.8932 27.6968 31.6613C25.8201 30.6307 23.0327 29.0428 20.5255 27.3859C19.2719 26.5566 15.4319 23.9008 15.9038 22.011C16.3094 20.3951 22.7617 14.3231 26.4488 10.7131C27.8959 9.29483 27.236 8.47665 25.527 9.78126C21.2832 13.0204 14.4695 17.9462 12.2167 19.3328C10.2294 20.5554 9.19336 20.7642 7.95451 20.5554C5.69434 20.1752 3.59826 19.5863 1.88746 18.8687C-0.424319 17.8996 -0.311864 14.6866 1.88562 13.751L33.4099 0.332203Z" fill="black"/>
</svg>
