<svg width="46" height="33" viewBox="0 0 46 33" fill="none" xmlns="http://www.w3.org/2000/svg">
<path d="M14.7453 14.4713C15.3059 12.3775 15.8677 10.2843 16.4271 8.19054C17.1138 5.61929 17.803 3.04867 18.478 0.473711C18.5528 0.187604 18.6814 0.113911 18.9644 0.11453C21.6717 0.125058 24.379 0.126297 27.0857 0.113292C27.3941 0.112054 27.5047 0.216092 27.5814 0.504057C28.7873 5.06318 30.0056 9.61922 31.2208 14.1765C31.2418 14.2545 31.2659 14.3313 31.3067 14.4688C31.6114 13.3281 31.9013 12.2474 32.1881 11.1668C33.1394 7.58117 34.0912 3.99555 35.0376 0.408687C35.0944 0.193798 35.1927 0.115769 35.4195 0.116388C38.5898 0.1232 41.7606 0.120723 44.9309 0.121961C45.0211 0.121961 45.1114 0.134346 45.2455 0.144874C45.0947 0.673119 44.955 1.17288 44.8085 1.67078C42.5963 9.21483 40.3823 16.7583 38.1701 24.3023C37.4383 26.7974 36.707 29.2925 35.9863 31.7906C35.9171 32.0309 35.8133 32.1126 35.5611 32.1114C32.8643 32.1021 30.1675 32.1027 27.4701 32.1102C27.2254 32.1108 27.1153 32.0464 27.0449 31.7937C25.7215 27.0538 24.387 22.3163 23.0544 17.5788C23.0433 17.5404 23.0315 17.502 22.9908 17.3689C22.8993 17.676 22.8294 17.8996 22.7664 18.1244C21.4968 22.6457 20.2235 27.1665 18.9675 31.6922C18.8748 32.0272 18.7314 32.1145 18.4007 32.1133C15.7967 32.0996 13.192 32.1077 10.5879 32.1046C10.0242 32.104 10.1318 32.1851 9.97106 31.6389C8.42952 26.4054 6.89662 21.1694 5.36064 15.934C3.84197 10.7575 2.32329 5.58152 0.805235 0.404972C0.783602 0.330039 0.768766 0.253248 0.742188 0.139301C0.895477 0.132489 1.01539 0.121961 1.13468 0.121961C4.25362 0.121342 7.37256 0.125058 10.4915 0.11515C10.7684 0.114531 10.8834 0.195035 10.9545 0.46566C12.1672 5.05513 13.3898 9.64213 14.6111 14.2297C14.634 14.3158 14.6637 14.3994 14.6903 14.4849C14.7082 14.4806 14.7261 14.4762 14.744 14.4713H14.7453Z" fill="black"/>
</svg>
